<svg class="about-svg" width="490" height="266" viewBox="0 0 490 266" fill="none" xmlns="http://www.w3.org/2000/svg">
<g clip-path="url(#clip0)">
<path opacity="0.1" d="M452.431 210.34C451.885 211.54 451.341 212.724 450.798 213.892C449.951 215.706 449.115 217.486 448.29 219.23C447.923 220.002 447.556 220.761 447.198 221.519C443.151 229.953 439.373 237.412 436.164 243.546C433.251 249.105 428.928 253.762 423.645 257.03C418.362 260.298 412.315 262.057 406.137 262.122L334.777 262.914H334.025L327.907 262.981L322.675 263.039L306.629 263.217H305.979L297.81 263.308H297.561L247.212 263.865L202.269 264.345L197.041 264.402L164.572 264.762H164.535L143.477 264.992H143.252L76.6678 265.727L56.7491 265.948C52.4984 265.997 48.2657 265.378 44.1994 264.114C37.1232 261.934 30.7638 257.826 25.8053 252.234C17.2506 242.62 11.0157 231.402 6.82778 219.23C6.22233 217.473 5.65766 215.694 5.13378 213.892C-9.36407 163.9 8.31004 99.4031 40.1197 56.2418C41.4529 54.437 42.8081 52.677 44.1853 50.9618L44.2182 50.9235C54.0011 38.6739 64.9697 28.4404 76.6537 21.1636C97.3581 8.24692 120.298 4.60855 142.861 15.4517C161.951 24.6292 179.776 28.9444 197.055 30.1156C198.801 30.2308 200.546 30.3172 202.283 30.37C241.918 31.642 279.064 17.0741 322.684 7.67093C324.42 7.29653 326.162 6.92693 327.917 6.57653C359.035 0.259775 393.555 -3.0714 434.606 3.93175C438.871 4.64247 443.079 5.66918 447.198 7.00373C449.008 7.59893 450.752 8.23892 452.431 8.92372C472.025 17.0549 482.711 32.0788 487.252 50.9042C487.682 52.6514 488.053 54.429 488.367 56.237C496.418 101.52 472.839 165.753 452.431 210.34Z" fill="#46D380"/>
<g opacity="0.1">
<path opacity="0.1" d="M76.6537 21.163V265.779L56.735 266C52.4843 266.049 48.2515 265.43 44.1852 264.166V50.9228H44.2182C54.0011 38.6589 64.9697 28.4253 76.6537 21.163Z" fill="#46D380"/>
<path opacity="0.1" d="M488.391 56.2412H40.1196C41.4529 54.4364 42.8081 52.6764 44.1852 50.9612V50.9228H487.276C487.705 52.6604 488.077 54.4332 488.391 56.2412Z" fill="#46D380"/>
<path opacity="0.1" d="M452.431 8.92783V213.887H450.798C449.951 215.701 449.115 217.48 448.29 219.224C447.923 219.997 447.556 220.755 447.198 221.514V6.98865C449.008 7.58384 450.753 8.23024 452.431 8.92783Z" fill="#46D380"/>
<path opacity="0.1" d="M327.917 6.56152V263L322.684 263.058V7.65592C324.421 7.28152 326.162 6.91192 327.917 6.56152Z" fill="#46D380"/>
<path opacity="0.1" d="M202.283 30.3549V264.392L197.055 264.449V30.1005C198.801 30.2157 200.547 30.2829 202.283 30.3549Z" fill="#46D380"/>
<path opacity="0.1" d="M450.798 213.891C449.951 215.706 449.115 217.485 448.29 219.229H6.82776C6.22231 217.472 5.65764 215.693 5.13376 213.891H450.798Z" fill="#46D380"/>
</g>
<path d="M108.51 127.598H99.5698V155.274H108.51V127.598Z" fill="#3F3D56"/>
<path d="M349.12 126.158H340.18V155.437H349.12V126.158Z" fill="#3F3D56"/>
<path d="M406.137 256.15V262.39L334.651 263.062L333.888 263.077L306.718 263.331L306.069 263.341L297.811 263.413H297.566L247.226 263.888L164.591 264.67H164.521L143.51 264.872L143.285 264.877L49.9261 265.75V258.55L71.8775 245.111L115.922 244.736L116.863 244.731L117.173 244.727L118.114 244.712L139.261 244.535L140.207 244.53L140.508 244.525L141.449 244.52L148.23 244.463L148.409 244.458L165.137 244.314H165.274L295.806 243.191L299.001 243.167H299.321L301.759 243.143L319.475 242.994L320.416 242.979L321.287 242.97H321.738L327.249 242.927L328.34 242.912L329.804 242.903L334.392 242.859L341.671 242.797L342.612 242.787L344.25 242.778H344.556L379.711 242.471L406.137 256.15Z" fill="#65617D"/>
<path opacity="0.2" d="M406.137 256.15V262.39L334.651 263.062L333.888 263.077L306.718 263.331L306.069 263.341L297.811 263.413H297.566L247.226 263.888L164.591 264.67H164.521L143.51 264.872L143.285 264.877L49.9261 265.75V258.55L71.8775 245.111L115.922 244.736L116.863 244.731L117.173 244.727L118.114 244.712L139.261 244.535L140.207 244.53L140.508 244.525L141.449 244.52L148.23 244.463L148.409 244.458L165.137 244.314H165.274L295.806 243.191L299.001 243.167H299.321L301.759 243.143L319.475 242.994L320.416 242.979L321.287 242.97H321.738L327.249 242.927L328.34 242.912L329.804 242.903L334.392 242.859L341.671 242.797L342.612 242.787L344.25 242.778H344.556L379.711 242.471L406.137 256.15Z" fill="black"/>
<path d="M139.332 232.155V243.911C139.332 244.467 139.177 245.013 138.886 245.483C138.594 245.954 138.178 246.331 137.685 246.57C137.318 246.751 136.916 246.85 136.508 246.858L120.086 247.213C119.647 247.224 119.212 247.13 118.816 246.939C118.314 246.705 117.889 246.328 117.591 245.854C117.293 245.38 117.135 244.829 117.136 244.266V232.155H139.332Z" fill="#3F3D56"/>
<path opacity="0.1" d="M139.332 232.155V243.911C139.332 244.467 139.177 245.013 138.886 245.483C138.594 245.954 138.178 246.331 137.685 246.57C137.318 246.751 136.916 246.85 136.508 246.858L120.086 247.213C119.647 247.224 119.212 247.13 118.816 246.939C118.314 246.705 117.889 246.328 117.591 245.854C117.293 245.38 117.135 244.829 117.136 244.266V232.155H139.332Z" fill="black"/>
<path d="M140.273 232.155V243.911C140.273 244.467 140.119 245.013 139.827 245.483C139.536 245.954 139.119 246.331 138.626 246.57C138.259 246.751 137.858 246.85 137.45 246.858L121.027 247.213C120.589 247.224 120.154 247.13 119.757 246.939C119.255 246.705 118.83 246.328 118.532 245.854C118.234 245.38 118.076 244.829 118.077 244.266V232.155H140.273Z" fill="#3F3D56"/>
<path d="M342.612 232.155H320.416V247.275H342.612V232.155Z" fill="#3F3D56"/>
<path opacity="0.1" d="M342.612 232.155H320.416V247.275H342.612V232.155Z" fill="black"/>
<path d="M341.671 232.155H319.475V247.275H341.671V232.155Z" fill="#3F3D56"/>
<path opacity="0.1" d="M108.51 127.593V130.343L99.5698 130.108V127.593H108.51Z" fill="black"/>
<path d="M167.358 50.1118L156.615 128.831C156.547 129.334 156.3 129.794 155.921 130.122C155.541 130.451 155.056 130.625 154.559 130.612L68.5413 128.337L66.9084 128.294C66.6241 128.287 66.3445 128.219 66.0876 128.094C65.8308 127.97 65.6026 127.791 65.4179 127.571C65.2332 127.35 65.0961 127.092 65.0157 126.814C64.9352 126.536 64.9131 126.244 64.9509 125.956L77.0113 43.5502C77.089 43.0398 77.3516 42.5776 77.7471 42.255C78.1426 41.9324 78.6424 41.7729 79.1476 41.8078L165.476 47.7694C165.754 47.7859 166.027 47.861 166.275 47.9902C166.524 48.1193 166.743 48.2997 166.92 48.5198C167.097 48.7399 167.227 48.995 167.303 49.269C167.378 49.543 167.397 49.83 167.358 50.1118Z" fill="#65617D"/>
<path d="M82.785 47.5965L73.6892 120.234L152.743 122.793L162.464 52.7133L82.785 47.5965Z" fill="#46D380"/>
<path d="M274.777 46.4733H183.484C182.099 46.4733 180.976 47.6188 180.976 49.0317V127.113C180.976 128.526 182.099 129.671 183.484 129.671H274.777C276.162 129.671 277.285 128.526 277.285 127.113V49.0317C277.285 47.6188 276.162 46.4733 274.777 46.4733Z" fill="#65617D"/>
<path d="M273.045 52.0749H185.522V121.353H273.045V52.0749Z" fill="#46D380"/>
<path opacity="0.1" d="M349.12 126.153V127.972L340.18 128.159V126.153H349.12Z" fill="black"/>
<path d="M389.461 124.617C389.474 124.816 389.447 125.015 389.382 125.203C389.317 125.391 389.216 125.564 389.084 125.711C388.952 125.858 388.793 125.976 388.615 126.059C388.437 126.142 388.245 126.187 388.049 126.191L299.961 128.049C299.595 128.057 299.24 127.923 298.967 127.674C298.693 127.426 298.523 127.081 298.488 126.71L290.917 46.4157C290.898 46.2165 290.919 46.0155 290.979 45.8249C291.039 45.6343 291.136 45.458 291.264 45.3068C291.393 45.1555 291.55 45.0324 291.726 44.945C291.903 44.8576 292.095 44.8076 292.291 44.7981L379.711 40.363L380.652 40.315C381.026 40.2949 381.393 40.4238 381.676 40.6745C381.959 40.9253 382.135 41.2783 382.167 41.659L389.461 124.617Z" fill="#65617D"/>
<path d="M295.947 49.5165L375.786 45.5134L382.53 118.473L303.321 120.393L295.947 49.5165Z" fill="#46D380"/>
<path opacity="0.1" d="M389.461 124.617C389.474 124.816 389.447 125.015 389.382 125.203C389.317 125.391 389.216 125.564 389.084 125.711C388.952 125.858 388.793 125.976 388.615 126.059C388.437 126.141 388.245 126.186 388.049 126.191L379.711 40.363L380.652 40.315C381.026 40.2949 381.393 40.4238 381.676 40.6745C381.959 40.9253 382.135 41.2783 382.167 41.659L389.461 124.617Z" fill="black"/>
<path opacity="0.1" d="M79.1617 41.8029L68.5413 128.337L66.9084 128.294C66.6241 128.287 66.3445 128.219 66.0876 128.094C65.8308 127.97 65.6026 127.791 65.4179 127.571C65.2332 127.35 65.0961 127.092 65.0157 126.814C64.9352 126.536 64.9131 126.244 64.9509 125.956L77.0113 43.5501C77.0881 43.0362 77.3523 42.5707 77.7509 42.2468C78.1496 41.9229 78.6535 41.7644 79.1617 41.8029Z" fill="black"/>
<path opacity="0.1" d="M108.51 147.076H99.5698V155.274H108.51V147.076Z" fill="black"/>
<path opacity="0.1" d="M140.273 232.151V234.536L118.077 235.141V232.151H140.273Z" fill="black"/>
<path d="M179.447 149.932V230.667C179.441 231.16 179.25 231.632 178.913 231.985C178.575 232.338 178.118 232.545 177.635 232.563L87.453 235.011H87.4294C86.9384 235.005 86.4691 234.803 86.1219 234.449C85.7746 234.095 85.5768 233.616 85.5707 233.115V149.932C85.5768 149.431 85.7746 148.952 86.1219 148.598C86.4691 148.244 86.9384 148.042 87.4294 148.036H177.588C178.079 148.042 178.548 148.244 178.896 148.598C179.243 148.952 179.441 149.431 179.447 149.932Z" fill="#65617D"/>
<path opacity="0.1" d="M87.453 148.036V235.011H87.4295C86.9384 235.005 86.4692 234.803 86.1219 234.449C85.7746 234.095 85.5768 233.616 85.5707 233.115V149.932C85.5768 149.431 85.7746 148.952 86.1219 148.598C86.4692 148.244 86.9384 148.042 87.4295 148.036H87.453Z" fill="black"/>
<path d="M91.5703 153.191H175.094V224.351L91.5703 226.271V153.191Z" fill="#D4DFEC"/>
<path opacity="0.1" d="M349.12 147.076H340.18V155.438H349.12V147.076Z" fill="black"/>
<path opacity="0.1" d="M341.671 232.151V235.227L319.475 234.623V232.151H341.671Z" fill="black"/>
<path d="M370.963 149.932V233.115C370.957 233.62 370.756 234.103 370.404 234.458C370.051 234.812 369.576 235.011 369.081 235.011L278.88 232.563C278.397 232.545 277.94 232.338 277.603 231.985C277.265 231.632 277.074 231.16 277.068 230.667V149.932C277.075 149.431 277.272 148.952 277.62 148.598C277.967 148.244 278.436 148.042 278.927 148.036H369.086C369.58 148.037 370.054 148.237 370.405 148.591C370.757 148.946 370.957 149.428 370.963 149.932Z" fill="#65617D"/>
<path opacity="0.1" d="M370.963 149.932V233.115C370.957 233.62 370.756 234.103 370.404 234.458C370.051 234.812 369.576 235.011 369.081 235.011V148.036C369.576 148.036 370.051 148.235 370.404 148.59C370.756 148.945 370.957 149.427 370.963 149.932Z" fill="black"/>
<path d="M364.964 153.191H281.44V224.351L364.964 226.271V153.191Z" fill="#D4DFEC"/>
<path d="M274.734 149.932V230.667C274.729 231.16 274.538 231.632 274.2 231.985C273.863 232.338 273.406 232.545 272.923 232.563L182.741 235.011C182.246 235.011 181.77 234.812 181.418 234.458C181.066 234.103 180.865 233.62 180.858 233.115V149.932C180.865 149.431 181.062 148.952 181.41 148.598C181.757 148.244 182.226 148.042 182.717 148.036H272.876C273.367 148.042 273.836 148.244 274.183 148.598C274.531 148.952 274.728 149.431 274.734 149.932Z" fill="#65617D"/>
<path d="M186.858 153.191H270.382V224.351L186.858 226.271V153.191Z" fill="#D4DFEC"/>
<path opacity="0.1" d="M406.137 256.151V262.39L334.651 263.062L333.888 263.077L306.718 263.331L306.069 263.341L297.811 263.413H297.566L247.226 263.888L164.591 264.67H164.521L143.51 264.872L143.285 264.877L49.9261 265.75V258.55L145.218 257.912H145.444L164.732 257.778H164.822L298.027 256.88H298.164L298.244 256.875H298.465L300.719 256.861H301.406L336.457 256.621L338.528 256.611L338.989 256.606L406.137 256.151Z" fill="black"/>
<path d="M229.283 155.274C242.623 155.274 253.437 144.243 253.437 130.636C253.437 117.029 242.623 105.998 229.283 105.998C215.944 105.998 205.13 117.029 205.13 130.636C205.13 144.243 215.944 155.274 229.283 155.274Z" fill="#FBBEBE"/>
<path d="M253.442 181.036C253.442 181.036 206.621 186.796 211.092 181.036C212.71 178.953 213.157 172.78 213.068 165.748C213.04 163.612 212.965 161.399 212.856 159.196C212.339 148.636 211.092 138.316 211.092 138.316C211.092 138.316 252.03 118.636 247.325 134.236C245.442 140.538 246.059 149.39 247.489 157.698C247.908 160.122 248.393 162.498 248.901 164.754C250.141 170.257 251.657 175.691 253.442 181.036Z" fill="#FBBEBE"/>
<path opacity="0.1" d="M253.442 181.036C253.442 181.036 206.621 186.796 211.092 181.036C212.71 178.953 213.157 172.78 213.068 165.748C220.206 162.637 229.288 164.956 229.288 164.956C238.85 163.012 244.981 163.391 248.901 164.754C250.141 170.257 251.657 175.691 253.442 181.036Z" fill="black"/>
<path d="M164.573 265.213V264.81L247.212 263.893L297.561 263.413H297.702L297.651 264.123L297.721 263.413H297.811V263.331L298.455 256.875L298.7 254.432L298.775 253.669L298.841 253.03L301.749 243.138L304.657 233.259L307.104 224.941L310.84 212.231C310.84 212.231 308.723 207.191 307.546 205.751C306.37 204.311 305.194 194.471 305.194 194.471C305.194 194.471 295.152 184.713 290.762 183.589C288.922 183.109 285.289 182.471 281.431 181.669C279.986 181.372 278.504 181.055 277.078 180.709C276.273 180.522 275.483 180.325 274.725 180.129C273.251 179.753 271.798 179.295 270.372 178.756C269.625 178.479 268.914 178.11 268.255 177.657C264.796 175.069 256.129 174.777 255.795 174.777C255.794 174.765 255.794 174.754 255.795 174.743V174.7C255.807 174.498 255.807 174.296 255.795 174.095C255.795 173.903 255.795 173.677 255.752 173.423C255.752 173.346 255.752 173.265 255.719 173.183C255.696 173.01 255.668 172.828 255.625 172.636C255.611 172.55 255.592 172.465 255.569 172.381C255.432 171.803 255.235 171.241 254.981 170.706C254.948 170.629 254.905 170.548 254.868 170.471C254.637 170.028 254.369 169.605 254.068 169.209C254.007 169.127 253.941 169.041 253.87 168.959C253.485 168.495 253.056 168.071 252.59 167.692C252.463 167.591 252.331 167.485 252.195 167.389C252.119 167.326 252.039 167.269 251.955 167.217L251.536 166.938L251.146 166.708C250.802 166.516 250.44 166.329 250.044 166.151C249.922 166.093 249.79 166.041 249.659 165.988C249.527 165.935 249.32 165.853 249.146 165.786H249.117L248.764 165.642C248.496 165.551 248.223 165.469 247.936 165.388L247.499 165.273L247.028 165.162L246.558 165.061C246.087 164.965 245.584 164.879 245.056 164.812L244.52 164.745L243.97 164.687L243.4 164.639L242.591 164.591L241.65 164.557C237.499 164.557 233.36 165.006 229.302 165.897C226.483 165.257 223.596 164.986 220.71 165.09H220.301L219.83 165.119H219.529L218.922 165.177C218.719 165.177 218.512 165.22 218.31 165.249C218.108 165.277 217.896 165.301 217.694 165.335L217.383 165.388C217.077 165.441 216.767 165.498 216.442 165.565C216.338 165.585 216.235 165.609 216.131 165.637C215.722 165.729 215.313 165.839 214.908 165.964C214.706 166.021 214.503 166.089 214.301 166.161C214.197 166.189 214.099 166.228 214 166.266L213.699 166.377L213.402 166.497L213.049 166.641C212.87 166.717 212.696 166.799 212.522 166.885C212.423 166.929 212.325 166.977 212.23 167.029C212.136 167.082 212.038 167.125 211.948 167.178C210.884 167.739 209.901 168.446 209.026 169.281L208.786 169.516L208.551 169.761C208.471 169.842 208.395 169.929 208.32 170.015C208.013 170.357 207.727 170.718 207.464 171.095C207.388 171.196 207.318 171.297 207.247 171.402C206.949 171.851 206.678 172.32 206.438 172.804C206.377 172.919 206.32 173.039 206.264 173.154C205.88 173.965 205.565 174.808 205.323 175.674C205.235 175.994 205.155 176.314 205.083 176.634C205.083 176.634 195.121 181.117 186.858 184.362C184.661 185.226 182.59 186.008 180.858 186.599C180.355 186.772 179.884 186.93 179.447 187.079C178.497 187.429 177.51 187.661 176.506 187.77C176.033 187.778 175.561 187.823 175.094 187.904C171.297 188.533 164.789 191.264 164.078 194.005C164.021 194.224 164.005 194.452 164.031 194.677C164.031 194.677 164.031 194.711 164.031 194.73C164.502 198.09 161.208 197.61 161.208 197.61C161.208 197.61 160.032 206.49 158.385 208.89C157.194 210.618 156.38 214.472 156.277 217.381C156.217 218.287 156.287 219.198 156.484 220.083C156.484 220.107 156.484 220.131 156.484 220.151C156.672 220.794 156.22 222.551 155.453 224.802C154.62 227.274 153.406 230.346 152.239 233.245C150.479 237.623 148.823 241.597 148.719 242.471C148.677 242.859 148.555 243.555 148.385 244.453C147.698 248.11 146.174 255.075 145.421 257.893C144.861 259.995 144.047 262.875 143.487 264.853C143.487 264.91 143.454 264.968 143.44 265.021L164.535 264.81V265.213H164.601H164.573Z" fill="#46D380"/>
<path opacity="0.1" d="M172.271 208.635C172.271 208.635 199.092 222.795 208.739 221.115L172.271 208.635Z" fill="black"/>
<path opacity="0.1" d="M226.855 202.876C226.855 202.876 252.971 211.515 261.677 212.715C270.382 213.915 226.855 202.876 226.855 202.876Z" fill="black"/>
<path opacity="0.1" d="M255.823 175.074C242.177 177.637 216.484 177.085 205.379 176.697C209.449 161.817 229.298 166.876 229.298 166.876C253.865 161.874 255.748 172.252 255.823 175.074Z" fill="black"/>
<path d="M255.823 174.114C242.177 176.677 216.484 176.125 205.379 175.737C209.449 160.857 229.298 165.916 229.298 165.916C253.865 160.914 255.748 171.292 255.823 174.114Z" fill="#46D380"/>
<path d="M328.26 239.715C328.26 239.715 344.335 237.195 344.65 244.395C344.965 251.595 336.453 256.626 336.453 256.626L328.26 239.715Z" fill="#FBBEBE"/>
<path opacity="0.1" d="M247.489 157.698C246.798 158.013 246.091 158.292 245.372 158.533C240.299 160.319 235.184 162.119 229.843 162.772C224.503 163.425 218.898 162.849 214.24 160.132C213.751 159.85 213.279 159.537 212.828 159.196C212.31 148.636 211.063 138.316 211.063 138.316C211.063 138.316 252.002 118.636 247.296 134.236C245.424 140.538 246.059 149.39 247.489 157.698Z" fill="black"/>
<path d="M222.658 92.1259C221.986 92.3068 221.283 92.3251 220.603 92.1792C219.923 92.0334 219.286 91.7274 218.743 91.2859L219.722 92.6731C219.145 92.741 218.561 92.6795 218.009 92.4929C217.458 92.3064 216.954 91.9993 216.531 91.5931C216.443 92.8349 216.493 94.0829 216.682 95.313C215.062 95.3927 213.468 94.8823 212.183 93.8731C212.158 94.3061 212.264 94.7365 212.486 95.1064C212.708 95.4763 213.036 95.7679 213.426 95.9418C211.799 95.7436 210.157 96.1559 208.806 97.1018C207.455 98.0478 206.488 99.4627 206.085 101.083L208.541 101.313C206.611 101.734 204.878 102.812 203.629 104.371C202.876 105.331 202.302 106.559 202.631 107.731C202.96 108.902 204.551 109.651 205.417 108.815C204.185 110.315 203.29 112.071 202.794 113.961C202.298 115.85 202.214 117.828 202.546 119.754C202.77 120.575 202.843 121.431 202.763 122.279C202.608 123.071 202.118 123.758 201.874 124.53C201.403 125.932 201.85 127.454 202.269 128.85L204.476 136.252C205.276 138.926 206.071 141.604 207.115 144.191C207.855 145.827 208.484 147.512 208.998 149.236C209.591 151.559 209.614 154.103 210.88 156.133C211.747 157.411 212.907 158.454 214.259 159.172C218.912 161.889 224.536 162.465 229.862 161.812C235.189 161.159 240.299 159.359 245.367 157.573C246.493 157.228 247.574 156.744 248.586 156.133C252.091 153.791 252.872 149.001 253.526 144.782C254.256 140.078 255.23 135.383 256.957 130.958C257.983 128.322 259.31 125.649 259.084 122.826C258.797 119.078 255.889 116.039 255.169 112.353C254.928 111.121 254.939 109.851 255.202 108.623C255.425 107.892 255.55 107.133 255.573 106.367C255.493 104.822 254.251 103.631 253.084 102.638C250.553 100.481 247.939 98.4426 245.245 96.5226C245.108 95.5626 246.388 95.1498 246.967 94.3914C247.786 93.3211 246.939 91.6219 245.696 91.1227C244.454 90.6235 243.061 90.9499 241.767 91.2811C241.852 90.6054 241.72 89.9201 241.392 89.3269C241.063 88.7338 240.556 88.2645 239.946 87.9889C239.335 87.7134 238.654 87.6462 238.003 87.7974C237.352 87.9487 236.766 88.3102 236.332 88.8283C235.989 88.0245 235.44 87.3296 234.743 86.8162C234.046 86.3028 233.226 85.9898 232.37 85.9099C229.25 85.6603 229.189 88.0939 227.194 89.4331C225.199 90.7723 223.552 89.0059 222.018 87.7195C221.736 88.4466 221.647 89.2367 221.759 90.0101C221.872 90.7836 222.182 91.5133 222.658 92.1259Z" fill="#3F3D56"/>
<path d="M340.18 254.115C340.18 254.115 339.761 255.133 338.989 256.606C337.822 258.874 336.4 260.995 334.754 262.928L334.627 263.067H333.865L306.695 263.322H306.045L305.965 263.226L300.695 256.846L298.709 254.442L298.629 254.341L298.46 254.139L298.366 254.024L298.244 253.875L294.38 249.2L295.792 243.2L298.196 233.091L298.258 232.847L298.728 230.927L299.062 229.487L300.182 224.792L304.022 208.64L310.845 212.24L318.04 225.2L321.903 232.16H324.021C324.421 232.16 325.338 232.947 326.26 233.855C326.59 234.176 326.919 234.517 327.202 234.815C328.039 235.698 328.703 236.456 328.703 236.456C328.703 236.456 332.133 236.533 333.055 239.288C333.103 239.422 333.142 239.558 333.173 239.696C333.479 240.779 333.877 241.833 334.363 242.845C334.97 244.194 335.733 245.725 336.504 247.256C337.94 250.064 339.398 252.738 339.935 253.707L340.001 253.827L340.18 254.115Z" fill="#46D380"/>
<path opacity="0.1" d="M299.759 232.443L299.712 233.13V233.178L299.632 234.282L299.006 243.167L298.248 253.87L298.032 256.885L297.561 263.336V263.418L247.212 263.898L164.587 264.81V265.213H164.521V264.81V264.675L164.733 257.782L165.137 244.314L165.485 232.895L165.518 231.757C165.539 231.07 165.696 230.395 165.981 229.773C166.266 229.15 166.673 228.594 167.176 228.137C167.679 227.68 168.268 227.333 168.906 227.116C169.545 226.899 170.221 226.817 170.892 226.875C173.113 227.067 175.998 227.303 179.447 227.552L180.858 227.658C200.777 229.069 237.589 230.893 274.735 228.618C275.516 228.575 276.301 228.527 277.087 228.469C282.847 228.099 288.602 227.624 294.3 227.029C295.021 226.952 295.749 227.037 296.433 227.278C297.118 227.519 297.743 227.911 298.263 228.424C298.783 228.938 299.187 229.562 299.445 230.253C299.704 230.943 299.811 231.682 299.759 232.419V232.443Z" fill="black"/>
<path d="M164.573 265.213V264.81L247.212 263.893L297.561 263.413H297.702V263.331L298.173 256.88L298.375 254L299.147 243.147L299.754 234.555V234.344C299.782 233.948 299.765 233.55 299.702 233.159C299.705 233.143 299.705 233.126 299.702 233.111C299.573 232.301 299.25 231.535 298.761 230.883C298.243 230.206 297.564 229.674 296.789 229.338C296.013 229.002 295.166 228.873 294.328 228.963C288.63 229.559 282.875 230.034 277.116 230.403C276.33 230.461 275.544 230.509 274.763 230.552C237.617 232.803 200.805 230.979 180.887 229.592L179.475 229.487C176.026 229.237 173.141 229.007 170.92 228.81C169.699 228.705 168.482 229.065 167.505 229.821C166.528 230.577 165.861 231.676 165.631 232.904C165.584 233.164 165.555 233.427 165.547 233.691L165.227 244.328L164.789 257.802L164.582 264.694V264.829V265.232L164.573 265.213Z" fill="#3F3D56"/>
<path opacity="0.1" d="M299.9 235.808L299.321 243.167L298.46 254.134L298.243 256.88L297.773 263.029L297.745 263.336V263.418L297.674 264.128L297.726 263.418H297.589L247.24 263.898L164.587 264.81V264.675L164.817 257.782L165.288 244.314L165.589 235.362C165.604 234.853 165.743 234.355 165.995 233.915C166.246 233.475 166.602 233.106 167.029 232.842C167.562 232.509 168.185 232.357 168.807 232.41C169.796 232.491 171.01 232.587 172.426 232.693C174.727 232.866 177.565 233.067 180.868 233.279C186.985 233.672 194.66 234.095 203.455 234.44C227.923 235.4 260.957 235.722 292.333 232.919C293.745 232.794 295.204 232.655 296.629 232.515C297.194 232.458 297.762 232.568 298.267 232.832C298.41 232.905 298.545 232.992 298.672 233.091C299.081 233.394 299.406 233.801 299.613 234.272C299.661 234.366 299.7 234.464 299.73 234.565C299.872 234.963 299.93 235.386 299.9 235.808Z" fill="black"/>
<path opacity="0.1" d="M140.273 242.379V243.911C140.273 244.467 140.119 245.013 139.827 245.483C139.536 245.954 139.119 246.331 138.626 246.57L119.757 246.939C119.255 246.705 118.83 246.328 118.532 245.854C118.234 245.38 118.076 244.829 118.077 244.266V242.826L140.273 242.379Z" fill="black"/>
<path d="M140.508 247.472L115.922 247.952V243.791L140.508 243.311V247.472Z" fill="#3F3D56"/>
<path opacity="0.1" d="M140.508 247.472L115.922 247.952V243.791L140.508 243.311V247.472Z" fill="black"/>
<path d="M141.449 247.472L116.863 247.952V243.791L141.449 243.311V247.472Z" fill="#3F3D56"/>
<g opacity="0.1">
<path opacity="0.1" d="M222.851 90.5515C222.391 89.9421 222.086 89.2266 221.962 88.4683C221.848 89.2096 221.916 89.9681 222.159 90.6763C222.393 90.6543 222.624 90.6125 222.851 90.5515Z" fill="black"/>
<path opacity="0.1" d="M216.875 93.7386C216.786 93.1502 216.728 92.5574 216.701 91.9626C216.701 92.553 216.701 93.1482 216.701 93.7434L216.875 93.7386Z" fill="black"/>
<path opacity="0.1" d="M255.225 109.756C255.251 109.328 255.308 108.903 255.395 108.484C255.617 107.754 255.744 106.997 255.771 106.233C255.76 106.061 255.735 105.891 255.696 105.724C255.616 106.166 255.489 106.607 255.395 107.044C255.207 107.935 255.15 108.849 255.225 109.756Z" fill="black"/>
<path opacity="0.1" d="M245.438 94.9242L245.951 95.3034C246.383 94.9844 246.788 94.6279 247.16 94.2378C247.337 93.988 247.447 93.6952 247.478 93.3886C247.509 93.082 247.461 92.7724 247.339 92.4907C247.292 92.6002 247.232 92.7034 247.16 92.7979C246.581 93.5562 245.301 93.9739 245.438 94.9242Z" fill="black"/>
<path opacity="0.1" d="M206.772 99.5418C206.6 99.8919 206.463 100.259 206.363 100.636C207.099 100.217 207.892 99.9114 208.715 99.729L206.772 99.5418Z" fill="black"/>
<path opacity="0.1" d="M213.261 94.3194C212.952 94.1457 212.656 93.9483 212.376 93.729C212.365 93.9189 212.379 94.1095 212.419 94.2954C212.7 94.2817 212.981 94.2898 213.261 94.3194Z" fill="black"/>
<path opacity="0.1" d="M259.267 122.601C259.074 124.929 258.011 127.17 257.15 129.378C255.423 133.804 254.449 138.498 253.719 143.207C253.065 147.426 252.308 152.217 248.779 154.554C247.77 155.169 246.691 155.653 245.565 155.994C240.492 157.785 235.377 159.58 230.036 160.233C224.696 160.885 219.091 160.314 214.433 157.597C213.082 156.879 211.923 155.836 211.054 154.559C209.798 152.529 209.774 149.985 209.172 147.661C208.658 145.936 208.029 144.249 207.29 142.612C206.25 140.03 205.45 137.332 204.654 134.678C203.917 132.21 203.182 129.742 202.448 127.271C202.206 126.528 202.026 125.765 201.911 124.991C201.728 126.22 202.085 127.506 202.448 128.711C203.182 131.185 203.917 133.654 204.654 136.118C205.45 138.791 206.25 141.47 207.29 144.052C208.029 145.689 208.658 147.376 209.172 149.101C209.765 151.425 209.788 153.969 211.054 155.999C211.923 157.276 213.082 158.319 214.433 159.037C219.091 161.754 224.71 162.325 230.036 161.673C235.363 161.02 240.473 159.225 245.565 157.434C246.691 157.092 247.77 156.609 248.779 155.994C252.284 153.657 253.065 148.866 253.719 144.647C254.449 139.938 255.423 135.244 257.15 130.818C258.176 128.188 259.503 125.514 259.277 122.687C259.277 122.658 259.267 122.63 259.267 122.601Z" fill="black"/>
<path opacity="0.1" d="M202.946 120.743C202.946 120.743 202.946 120.71 202.946 120.691C203.031 119.844 202.958 118.989 202.73 118.171C202.636 117.644 202.575 117.112 202.546 116.577C202.492 117.592 202.554 118.61 202.73 119.611C202.805 119.985 202.89 120.364 202.946 120.743Z" fill="black"/>
<path opacity="0.1" d="M204.382 109.003C204.743 108.382 205.154 107.793 205.61 107.241C204.749 108.081 203.158 107.332 202.824 106.166C202.701 106.638 202.701 107.134 202.824 107.606C202.94 107.958 203.145 108.273 203.419 108.518C203.692 108.763 204.024 108.93 204.382 109.003Z" fill="black"/>
</g>
<path opacity="0.1" d="M321.908 232.155C321.908 232.155 323.399 237.675 321.908 242.475C320.416 247.275 321.908 232.155 321.908 232.155Z" fill="black"/>
<path opacity="0.1" d="M328.26 237.786C328.26 237.786 328.886 244.794 327.474 246.037C326.063 247.28 328.26 237.786 328.26 237.786Z" fill="black"/>
<path d="M93.636 164.572L141.449 164.092" stroke="#46D380" stroke-width="2" stroke-miterlimit="10"/>
<path d="M93.636 170.557L141.449 170.082" stroke="#46D380" stroke-width="2" stroke-miterlimit="10"/>
<path d="M93.636 176.548L141.449 176.068" stroke="#46D380" stroke-width="2" stroke-miterlimit="10"/>
</g>
<defs>
<clipPath id="clip0">
<rect width="490" height="266" fill="white"/>
</clipPath>
</defs>
</svg>
