<svg width="64" height="64" viewBox="0 0 64 64" fill="#76ec7e"
    xmlns="http://www.w3.org/2000/svg">
    <g clip-path="url(#clip0)">
        <path d="M57.3794 45.1191C58.1395 43.2062 57.8534 40.9694 56.4756 39.2738L55.6233 38.2267C54.8622 37.2916 53.4156 38.469 54.1769 39.404L55.0288 40.4505C56.3225 42.0429 56.2028 44.3368 54.7505 45.7865L46.6605 53.8611C44.9439 55.5776 42.9604 55.5204 40.9397 54.3217L34.5412 50.5115C33.3641 49.6173 33.2263 47.8108 34.2628 46.75L40.0703 50.6017C41.0446 51.2485 42.1033 49.712 41.1012 49.0476L32.4731 43.3252C28.7688 40.8939 28.7021 35.8009 31.7379 32.771C32.9274 31.5838 34.1139 30.3937 35.3033 29.2065C36.8174 27.6956 38.8878 26.8896 40.9883 26.9995C43.0688 27.1068 44.9445 28.0625 46.2699 29.6906L50.9948 35.4949C51.7561 36.4299 53.2024 35.2526 52.4412 34.3176L49.5736 30.7949L50.74 31.3492C51.5077 31.7141 52.3522 30.8841 51.9825 30.1067L48.1764 22.1L56.546 19.1358C57.3566 18.8488 57.3571 17.6664 56.5472 17.3782L48.1821 14.4026L51.9999 6.40112C52.3703 5.62539 51.5356 4.78949 50.7592 5.15677L42.7332 8.95782L39.7632 0.603248C39.479 -0.197097 38.2946 -0.204681 38.0064 0.60188L35.0243 8.95247L27.0041 5.14061C26.228 4.77146 25.3928 5.60711 25.7616 6.38309L27.2203 9.4518L23.8937 6.75411C22.1959 5.38008 19.9554 5.0951 18.0395 5.85429L14.1358 1.958C12.9873 0.811634 11.1184 0.811509 9.97018 1.958C7.55335 4.37023 5.13653 6.78245 2.7197 9.19468C1.59236 10.3203 1.58975 12.2321 2.71983 13.3602L6.52647 17.1595C5.89087 18.5 5.83604 20.0076 6.39119 21.5532C6.79118 22.6664 8.554 22.0573 8.14643 20.9228C7.57872 19.3422 7.89366 17.9392 9.0823 16.7526C11.845 13.9963 14.6068 11.2389 17.3689 8.48187C18.8228 7.03088 21.1235 6.91164 22.7196 8.20335L33.5007 16.946C36.9151 19.6004 37.0781 24.9033 33.9856 27.8863C32.7964 29.0736 31.6039 30.2579 30.4145 31.4451C27.3808 34.4729 22.2761 34.4162 19.8327 30.7076L14.1017 22.0999C13.4332 21.0965 11.8811 22.1298 12.5493 23.1334L16.4066 28.927C15.3457 29.9571 13.5344 29.8266 12.6348 28.6474L10.3519 24.8281C9.73369 23.7929 8.13251 24.7501 8.75108 25.7848L11.059 29.6458C12.3611 31.8194 15.6205 32.0132 17.4503 30.4944C17.8591 31.1084 18.2507 31.7499 18.7045 32.3324C18.9245 34.0358 19.4936 35.7631 19.8809 37.4364L9.73506 38.7082C8.88187 38.815 8.62811 39.9699 9.35758 40.4248L18.0286 45.8315L11.7566 53.8893C11.2287 54.5678 11.8645 55.5633 12.7021 55.3707L22.6667 53.0735L23.9407 63.1994C24.0479 64.0503 25.2068 64.2956 25.6564 63.5777L31.0748 54.9211L39.1514 61.1834C39.8304 61.7098 40.8251 61.0732 40.6312 60.2362L39.577 55.6808C41.5676 56.8713 43.8249 57.6682 46.0552 56.6124L49.8642 60.4141C50.4384 60.9872 51.1927 61.2737 51.947 61.2737C52.7012 61.2737 53.4555 60.9872 54.0297 60.4141L61.2803 53.1775C62.4078 52.052 62.4101 50.1401 61.2802 49.012L57.3794 45.1191ZM12.8183 3.27819L16.3933 6.84636C15.9614 7.21502 15.567 7.63825 15.1689 8.04271C13.9753 9.22626 12.0394 9.22427 10.8487 8.03575C9.40868 6.5354 9.80817 4.57053 11.2878 3.27819C11.7096 2.85707 12.3963 2.85682 12.8183 3.27819V3.27819ZM4.03728 12.04C3.61529 11.5316 3.61517 11.0232 4.03716 10.5146L8.11945 6.44028C8.24453 7.54127 8.73491 8.56057 9.5314 9.35569C10.3473 10.17 11.3804 10.638 12.4463 10.7601C10.8351 12.3682 9.16101 13.9389 7.60334 15.5992L4.03728 12.04ZM38.0591 22.1208C37.9244 19.5098 36.7227 17.1576 34.6754 15.4975L30.5807 12.1769L28.5717 7.95071L35.1552 11.0797C35.7379 11.282 36.1641 11.1058 36.4338 10.5512L38.8824 3.69397L41.3213 10.5545C41.5902 11.1096 42.0161 11.2864 42.5989 11.0851L49.1871 7.96488L46.0531 14.5331C45.8497 15.1168 46.026 15.5435 46.5821 15.8133L53.4466 18.255L46.5785 20.6873C46.0221 20.9563 45.8451 21.3828 46.0476 21.9666L49.172 28.5394L46.4963 27.2677C44.9828 25.9861 43.1113 25.2415 41.0842 25.1369C39.875 25.0745 38.6747 25.2532 37.5472 25.6479C37.9425 24.5231 38.1214 23.3259 38.0591 22.1208V22.1208ZM38.2235 58.1043L31.4028 52.8157C30.8773 52.4934 30.4233 52.5741 30.041 53.0577L25.4644 60.3695L24.3883 51.8167C24.2447 51.2166 23.8665 50.9525 23.2536 51.0245L14.8405 52.964L20.1361 46.1605C20.4597 45.6339 20.3789 45.1792 19.8936 44.7964L12.5738 40.2323L21.1387 39.1587C21.7396 39.0152 22.0037 38.6367 21.9312 38.0231L21.1024 34.4418C23.2415 35.6838 25.8549 35.8263 28.1709 35.0091C26.8666 38.6952 28.1731 42.7336 31.4462 44.8818L32.6927 45.7085C31.1785 47.5297 31.3783 50.8013 33.5455 52.0893L37.357 54.3589L38.2235 58.1043ZM59.9626 50.3321C60.6299 50.9981 60.0302 51.7889 59.5222 52.2971C58.3293 53.4879 56.3881 53.4879 55.195 52.2971C54.0255 51.1298 54.023 49.1475 55.1951 47.9777C55.5961 47.582 56.0195 47.1911 56.3862 46.7628L59.9626 50.3321ZM52.7122 59.0942C52.2902 59.5153 51.6038 59.5155 51.1815 59.0942L47.6169 55.5362C49.2793 53.9802 50.854 52.3104 52.4658 50.7017C52.5909 51.8028 53.0813 52.822 53.8777 53.6171C54.6935 54.4314 55.7267 54.8995 56.7925 55.0216L52.7122 59.0942Z" fill="#76ec7e"/>
        <path d="M9.99667 33.9361C9.99667 33.421 9.57928 33.0036 9.06416 33.0036H8.01651C6.78174 33.0464 6.78273 34.8264 8.01651 34.8687H9.06416C9.57928 34.8687 9.99667 34.4511 9.99667 33.9361Z" fill="#76ec7e"/>
        <path d="M5.15319 31.8656C5.66831 31.8656 6.08571 31.4482 6.08571 30.9331V29.8856C6.04294 28.6508 4.26295 28.6518 4.22068 29.8856V30.9331C4.22068 31.4482 4.63807 31.8656 5.15319 31.8656Z" fill="#76ec7e"/>
        <path d="M2.15025 32.864H1.10273C-0.132041 32.9068 -0.131046 34.6868 1.10273 34.729H2.15025C3.3849 34.6863 3.38403 32.9063 2.15025 32.864Z" fill="#76ec7e"/>
        <path d="M4.08106 37.8471C4.12383 39.0819 5.90381 39.0809 5.94608 37.8471V36.7995C5.90331 35.5647 4.12333 35.5657 4.08106 36.7995V37.8471Z" fill="#76ec7e"/>
        <path d="M9.64318 49.5463C9.27888 49.1822 8.68854 49.1822 8.32436 49.5463C7.96018 49.9106 7.96018 50.5009 8.32436 50.8651L8.8922 51.433C9.33185 51.797 9.7715 51.797 10.211 51.433C10.5752 51.0687 10.5752 50.4783 10.211 50.1141L9.64318 49.5463Z" fill="#76ec7e"/>
        <path d="M8.96792 45.7982L8.40008 46.366C8.0359 46.7303 8.0359 47.3207 8.40008 47.6849C8.83973 48.0489 9.27938 48.0489 9.71891 47.6849L10.2867 47.117C10.6509 46.7527 10.6509 46.1624 10.2867 45.7982C9.92244 45.4342 9.3321 45.4342 8.96792 45.7982V45.7982Z" fill="#76ec7e"/>
        <path d="M5.97094 45.7226C5.60664 45.3586 5.0163 45.3586 4.65212 45.7226C4.28795 46.0869 4.28795 46.6773 4.65212 47.0414L5.21996 47.6093C5.65961 47.9733 6.09926 47.9733 6.53878 47.6093C6.90296 47.245 6.90296 46.6546 6.53878 46.2905L5.97094 45.7226Z" fill="#76ec7e"/>
        <path d="M5.14425 49.4704L4.57641 50.0383C4.21223 50.4026 4.21223 50.9929 4.57641 51.3571C5.01606 51.7212 5.45571 51.7212 5.89523 51.3571L6.46307 50.7893C6.82725 50.425 6.82725 49.8346 6.46307 49.4704C6.09877 49.1065 5.50842 49.1065 5.14425 49.4704Z" fill="#76ec7e"/>
        <path d="M58.5565 13.6524C58.9961 14.0164 59.4358 14.0164 59.8753 13.6524C60.2395 13.2881 60.2395 12.6977 59.8753 12.3335L59.3074 11.7657C58.9431 11.4016 58.3528 11.4016 57.9886 11.7657C57.6245 12.13 57.6245 12.7203 57.9886 13.0845L58.5565 13.6524Z" fill="#76ec7e"/>
        <path d="M58.7237 10.1775C58.9623 10.1775 59.201 10.0864 59.3832 9.90442L59.951 9.33658C60.3152 8.97228 60.3152 8.38194 59.951 8.01776C59.5867 7.65371 58.9964 7.65371 58.6322 8.01776L58.0644 8.5856C57.7002 8.9499 57.7002 9.54024 58.0644 9.90442C58.2465 10.0863 58.4851 10.1775 58.7237 10.1775V10.1775Z" fill="#76ec7e"/>
        <path d="M54.8843 9.82867C55.3239 10.1927 55.7635 10.1927 56.2031 9.82867C56.5672 9.46437 56.5672 8.87403 56.2031 8.50985L55.6352 7.94202C55.2709 7.57796 54.6806 7.57796 54.3164 7.94202C53.9522 8.30632 53.9522 8.89666 54.3164 9.26084L54.8843 9.82867Z" fill="#76ec7e"/>
        <path d="M54.9001 13.8497C55.1388 13.8497 55.3775 13.7587 55.5595 13.5765L56.1272 13.0087C56.4914 12.6444 56.4914 12.054 56.1271 11.69C55.7627 11.3258 55.1722 11.3258 54.8084 11.6901L54.2407 12.2579C53.8765 12.6222 53.8765 13.2126 54.2408 13.5766C54.423 13.7587 54.6616 13.8497 54.9001 13.8497V13.8497Z" fill="#76ec7e"/>
        <path d="M55.9834 26.3828H54.9357C53.7009 26.4256 53.7019 28.2055 54.9357 28.2478H55.9834C57.2181 28.205 57.2173 26.4251 55.9834 26.3828Z" fill="#76ec7e"/>
        <path d="M58.8468 29.3857C58.3317 29.3857 57.9143 29.8031 57.9143 30.3182V31.3658C57.957 32.6005 59.737 32.5995 59.7793 31.3658V30.3182C59.7793 29.8032 59.3618 29.3857 58.8468 29.3857Z" fill="#76ec7e"/>
        <path d="M62.8973 26.5224H61.8497C60.615 26.5652 60.616 28.3452 61.8497 28.3874H62.8973C64.132 28.3447 64.131 26.5647 62.8973 26.5224Z" fill="#76ec7e"/>
        <path d="M59.9189 23.4043C59.8762 22.1696 58.0962 22.1706 58.0539 23.4043V24.452C58.0967 25.6868 59.8766 25.6858 59.9189 24.452V23.4043Z" fill="#76ec7e"/>
    </g>
    <defs>
        <clipPath id="clip0">
            <rect width="64" height="64" fill="#76ec7e"/>
        </clipPath>
    </defs>
</svg>
