<svg width="405" height="214" viewBox="0 0 445 254" fill="none"
    xmlns="http://www.w3.org/2000/svg">
    <path d="M222.501 236.728C108.459 236.728 16.008 232.436 16.008 227.142C16.008 221.848 108.459 217.556 222.501 217.556C336.544 217.556 428.994 221.848 428.994 227.142C428.994 232.436 336.544 236.728 222.501 236.728Z" fill="#EFEFED"/>
    <path d="M442.791 176.741C441.474 163.583 432.114 152.066 421.181 144.342C409.45 136.054 395.769 131.037 383.171 124.138C378.527 121.595 373.687 118.381 372.066 113.339C370.071 107.133 373.712 100.512 378.111 95.7C382.51 90.8881 387.913 86.7397 390.651 80.8232C393.978 73.6322 392.643 64.8905 388.638 58.0536C384.632 51.2173 378.27 46.057 371.512 41.9214C351.841 29.8845 324.049 26.5326 307.116 42.1886C297.96 50.6535 291.168 64.5824 278.7 64.7352C266.424 64.8847 259.27 51.5292 250.273 43.1774C236.801 30.6733 214.781 30.1422 199.629 39.8715C191.486 45.1001 186.579 53.8789 178.801 59.4943C174.847 62.3484 170.197 64.3491 165.238 64.0634C152.297 63.3174 145.414 48.9181 135.563 40.4934C119.204 26.5019 93.6444 29.8021 75.0782 40.6954C67.6922 45.0292 60.7492 50.5915 56.5557 58.058C52.3622 65.5246 51.3404 75.1586 55.5607 82.6098C60.7634 91.7958 73.2142 97.3965 73.3606 107.952C73.4655 115.549 66.7941 121.399 60.2755 125.3C49.2341 131.908 36.9526 136.257 25.9734 142.966C14.9933 149.675 4.96207 159.561 2.48815 172.188C-0.823215 189.091 10.8764 206.242 26.2268 214.055C41.8203 221.992 60.0726 222.146 77.5691 222.128C175.415 222.03 273.26 221.931 371.106 221.832C387.761 221.817 405.144 221.631 419.946 213.997C432.839 207.348 443.066 194.154 442.948 179.648C442.94 178.671 442.887 177.702 442.791 176.741Z" fill="#286C44" fill-opacity="0.5"/>
    <path d="M232.289 0.00115299C229.435 0.00115299 227.119 2.31571 227.119 5.17039C227.119 8.02507 229.435 10.339 232.289 10.339C235.144 10.339 237.458 8.02507 237.458 5.17039C237.458 2.31571 235.144 0.00115299 232.289 0.00115299Z" fill="#286C44"/>
    <path d="M227.119 19.2182C227.119 20.6462 228.277 21.8025 229.704 21.8025C231.132 21.8025 232.289 20.6462 232.289 19.2182C232.289 17.7909 231.132 16.6339 229.704 16.6339C228.277 16.6339 227.119 17.7909 227.119 19.2182Z" fill="#286C44"/>
    <path d="M219.49 9.4698C217.938 10.3653 217.407 12.3494 218.302 13.9008C219.198 15.4521 221.181 15.9839 222.733 15.0884C224.285 14.1922 224.816 12.2088 223.921 10.6574C223.025 9.1061 221.041 8.57428 219.49 9.4698Z" fill="#286C44"/>
    <path d="M290.18 27.995C286.294 27.995 283.143 31.1456 283.143 35.032C283.143 38.919 286.294 42.0696 290.18 42.0696C294.067 42.0696 297.217 38.919 297.217 35.032C297.217 31.1456 294.067 27.995 290.18 27.995Z" fill="#286C44"/>
    <path d="M283.143 54.1577C283.143 56.1009 284.718 57.6765 286.662 57.6765C288.605 57.6765 290.18 56.1009 290.18 54.1577C290.18 52.2145 288.605 50.6389 286.662 50.6389C284.718 50.6389 283.143 52.2145 283.143 54.1577Z" fill="#286C44"/>
    <path d="M272.755 40.8859C270.643 42.1055 269.919 44.8061 271.139 46.918C272.358 49.0306 275.058 49.7542 277.17 48.5346C279.283 47.315 280.006 44.6144 278.787 42.5024C277.567 40.3905 274.867 39.6663 272.755 40.8859Z" fill="#286C44"/>
    <path d="M172.121 14.7655C168.235 14.7655 165.084 17.9161 165.084 21.8025C165.084 25.6895 168.235 28.8401 172.121 28.8401C176.008 28.8401 179.159 25.6895 179.159 21.8025C179.159 17.9161 176.008 14.7655 172.121 14.7655Z" fill="#286C44"/>
    <path d="M165.084 40.9287C165.084 42.8713 166.659 44.4469 168.603 44.4469C170.546 44.4469 172.121 42.8713 172.121 40.9287C172.121 38.9849 170.546 37.4093 168.603 37.4093C166.659 37.4093 165.084 38.9849 165.084 40.9287Z" fill="#286C44"/>
    <path d="M154.697 27.6563C152.584 28.8759 151.86 31.5765 153.079 33.6885C154.3 35.8004 157 36.5246 159.112 35.305C161.224 34.0854 161.948 31.3848 160.728 29.2728C159.509 27.1609 156.808 26.4367 154.697 27.6563Z" fill="#286C44"/>
    <path d="M408.36 126.54C400.906 123.704 407.626 120.387 412.305 119.063C416.09 117.993 425.568 116.247 421.722 109.786C417.693 103.019 413.832 111.377 410.627 112.321C403.463 114.429 410.918 105.444 412.698 103.047C415.136 99.7642 420.264 93.0577 413.931 91.9397C408.81 91.0359 403.506 98.172 401.381 101.728C399.867 104.264 396.142 116.139 392.266 113.506C389.331 111.513 392.367 99.623 385.362 108.122C382.513 111.577 382.972 117.13 381.688 121.084C379.807 126.873 379.014 129.272 373.875 127.786C371.211 127.016 371.125 123.674 367.838 125.931C366.145 127.093 365.644 132.443 365.659 134.302C365.791 151.368 372.615 162.799 375.834 164.272C380.191 166.267 388.29 163.385 392.016 161.245C393.869 160.18 397.249 158.422 397.011 155.724C396.743 152.697 392.069 153.132 391.896 151.353C391.403 146.311 400.681 151.129 403.249 150.41C406.576 149.478 412.086 143.535 408.597 140.391C408.238 140.068 393.738 139.018 402.033 134.401C406.625 131.846 411.551 138.937 415.98 133.903C422.357 126.657 411.155 127.603 408.36 126.54Z" fill="#82F48A"/>
    <path d="M407.124 129.224C403.921 127.872 400.611 126.652 397.123 126.355C399.576 123.29 402.147 120.254 404.014 116.85C404.54 115.891 402.972 115.228 402.449 116.181C402.221 116.596 401.968 116.999 401.722 117.405C401.453 116.365 401.775 114.811 401.873 113.981C402.125 111.838 402.931 109.912 403.775 107.947C404.206 106.94 402.642 106.269 402.209 107.277C401.115 109.828 400.253 112.264 400.06 115.05C399.966 116.42 399.884 117.905 400.679 119.039C398.042 122.953 394.756 126.558 392.006 130.355C390.831 128.492 389.967 126.552 389.57 124.345C389.136 121.941 389.43 119.498 389.181 117.078C389.068 115.988 387.378 116.198 387.491 117.29C387.791 120.199 387.45 123.057 388.181 125.926C388.732 128.088 389.721 130 390.949 131.846C387.788 136.417 384.868 141.168 382.469 146.185C381.672 147.852 380.944 149.55 380.239 151.26C378.652 148.887 377.337 146.411 376.422 143.683C375.914 142.167 375.35 140.56 375.146 138.971C374.992 137.768 375.119 136.632 374.645 135.492C374.225 134.479 372.644 135.111 373.065 136.124C373.646 137.523 373.449 139.345 373.817 140.84C374.172 142.283 374.613 143.716 375.114 145.115C376.138 147.977 377.647 150.575 379.387 153.056L379.473 153.137C378.284 156.09 377.122 159.055 375.799 161.944C375.694 162.026 375.599 162.131 375.538 162.288C375.411 162.612 375.159 163.059 375.076 163.452C372.713 169.418 370.332 175.38 368.044 181.376C367.656 182.397 369.219 183.072 369.61 182.046C371.889 176.071 374.261 170.129 376.617 164.184L376.665 164.115C377.421 162.558 378.114 160.97 378.784 159.372C381.88 160.159 385.322 159.255 388.211 158.094C389.229 157.685 388.595 156.105 387.578 156.514C385.066 157.523 382.159 158.307 379.445 157.772C380.935 154.115 382.337 150.416 384.034 146.855C384.708 145.438 385.431 144.046 386.186 142.672C386.241 142.711 386.287 142.758 386.359 142.788C390.582 144.501 395.138 145.187 399.657 144.478C400.737 144.308 400.532 142.617 399.445 142.788C395.211 143.453 390.989 142.829 387.029 141.222L387.006 141.218C389.331 137.161 391.951 133.272 394.704 129.493C395.173 128.85 395.661 128.214 396.156 127.582C396.253 127.815 396.451 128.003 396.791 128.031C400.175 128.301 403.35 129.479 406.454 130.79C407.463 131.215 408.135 129.651 407.124 129.224Z" fill="#82F48A"/>
    <path d="M439.861 149.134C432.334 152.06 424.637 153.822 417.591 157.93C410.819 161.877 404.245 166.359 398.083 171.199C392.404 175.66 386.965 180.394 381.263 184.834C374.607 190.017 369.917 196.309 364.229 202.407C363.318 203.384 361.714 202.056 362.629 201.075C367.784 195.547 372.044 189.589 377.962 184.788C384.247 179.689 390.517 174.498 396.878 169.501C403.288 164.465 410.146 159.805 417.22 155.751C424.137 151.787 431.778 150.044 439.15 147.176C440.4 146.691 441.11 148.648 439.861 149.134Z" fill="#9BDE9D"/>
    <path d="M438.513 148.565C440.129 147.853 442.984 148.111 444.296 149.337C445.832 150.772 444.425 152.161 442.758 152.48C440.901 152.836 438.989 152.136 437.189 151.784C435.321 151.419 433.3 151.831 431.549 151.222C432.622 150.383 434.668 149.875 435.973 149.54C437.361 149.184 438.641 148.503 440.001 148.135" fill="#9BDE9D"/>
    <path d="M435.195 149.988C438.057 148.98 442.28 149.301 444.28 146.518C445.59 144.697 445.132 143.045 442.796 142.846C441.024 142.695 439.583 143.867 438.454 145.078C437.013 146.623 435.301 148.573 434.227 150.339" fill="#9BDE9D"/>
    <path d="M427.293 151.759C428.332 148.447 429.54 144.238 432.743 142.244C434.738 141.002 435.126 143.438 434.635 144.825C433.514 147.988 430.424 150.671 427.624 152.345L427.293 151.759Z" fill="#9BDE9D"/>
    <path d="M419.845 154.899C420.478 150.707 421.144 145.401 424.634 142.395C426.809 140.521 427.734 143.387 427.402 145.153C426.645 149.18 423.42 152.998 420.355 155.544L419.845 154.899Z" fill="#9BDE9D"/>
    <path d="M403.968 164.876C403.858 160.637 403.589 155.296 406.5 151.727C408.314 149.502 409.725 152.163 409.707 153.96C409.664 158.057 407.156 162.379 404.583 165.421L403.968 164.876Z" fill="#9BDE9D"/>
    <path d="M391.216 174.87C389.759 170.076 387.773 164.074 389.968 159.092C391.337 155.986 393.781 158.575 394.325 160.628C395.564 165.31 394.064 171.024 392.087 175.299L391.216 174.87Z" fill="#9BDE9D"/>
    <path d="M409.249 160.869C410.622 156.181 412.211 150.225 416.623 147.398C419.372 145.636 419.965 149.081 419.312 151.043C417.823 155.52 413.583 159.322 409.723 161.697L409.249 160.869Z" fill="#9BDE9D"/>
    <path d="M427.926 153.504C430.847 155.379 434.473 157.835 438.208 157.312C440.536 156.986 439.272 154.867 438.006 154.118C435.119 152.41 431.026 152.332 427.804 152.842L427.926 153.504Z" fill="#9BDE9D"/>
    <path d="M410.721 159.976C414.513 161.079 419.261 162.589 423.167 160.812C425.602 159.706 423.539 157.803 421.916 157.394C418.215 156.461 413.726 157.695 410.375 159.292L410.721 159.976Z" fill="#9BDE9D"/>
    <path d="M402.045 168.331C406.112 169.515 411.203 171.134 415.39 169.229C418.001 168.042 415.79 166.002 414.05 165.564C410.081 164.563 405.268 165.887 401.674 167.598L402.045 168.331Z" fill="#9BDE9D"/>
    <path d="M393.003 175.23C398.428 176.585 405.212 178.462 410.957 175.744C414.536 174.048 411.657 171.471 409.332 170.98C404.03 169.861 397.471 171.846 392.539 174.283L393.003 175.23Z" fill="#9BDE9D"/>
    <path d="M397.877 169.905C396.947 167.305 395.542 165.039 395.443 162.213C395.357 159.758 396.427 157.524 398.005 155.701C398.701 154.897 399.434 153.826 400.598 153.69C402.232 153.499 401.546 155.246 401.239 156.311C400.586 158.578 400.051 160.924 399.65 163.239C399.429 164.517 399.181 165.708 398.856 166.923C398.641 167.725 398.646 169.321 398.3 169.862" fill="#9BDE9D"/>
    <path d="M403.516 178.58C400.484 178.617 390.706 179.561 386.947 179.608C386.09 180.295 385.214 180.967 384.33 181.642C390.46 183.128 400.569 184.1 403.239 183.464C404.391 183.19 406.785 182.189 407.198 181.009C407.942 178.879 404.84 178.566 403.516 178.58Z" fill="#9BDE9D"/>
    <path d="M394.793 193.542C391.154 192.734 379.184 191.116 374.671 190.115C373.451 190.697 372.215 191.255 370.966 191.814C377.888 195.317 389.714 199.322 393.089 199.311C394.545 199.307 397.692 198.781 398.518 197.485C400.008 195.144 396.382 193.896 394.793 193.542Z" fill="#9BDE9D"/>
    <path d="M382.2 182.687C381.713 181.058 377.551 176.213 379.356 167.315C379.613 166.053 380.07 164.396 381.416 163.907C383.284 163.228 383.422 165.322 383.472 166.647C383.571 169.262 383.238 179.198 383.477 181.677" fill="#9BDE9D"/>
    <path d="M377.234 187.119C379.068 187.646 380.899 188.787 382.801 189.398C384.84 190.053 396.147 191.974 399.718 191.241C401.268 190.923 404.289 191.036 404.673 189.064C405.045 187.158 402.726 185.973 401.231 185.48C397.758 184.336 381.352 185.493 377.182 186.37" fill="#9BDE9D"/>
    <path d="M375.72 187.777C371.425 181.677 369.719 169.047 370.767 167.767C373.041 164.989 375.909 169.317 376.476 171.423C377.744 176.143 376.595 187.255 375.808 187.416" fill="#9BDE9D"/>
    <path d="M364.607 197.514C361.776 199.834 358.137 202.773 355.194 204.921C351.357 207.722 351.357 210.477 354.66 213.788C358.736 217.877 365.993 220.109 371.607 221.003C373.593 221.319 373.965 221.183 374.004 218.929C374.034 217.264 373.813 215.721 373.963 214.042C374.252 210.801 374.771 208.022 376.675 205.348C379.678 201.131 379.948 206.371 379.086 208.797C378.082 211.623 377.413 214.678 377.388 217.739C377.345 222.995 394.513 215.115 397.033 212.105C395.069 210.61 392.771 204.438 394.296 202.021C395.639 199.893 396.216 202.226 396.507 203.637C396.843 205.261 396.999 206.796 397.964 208.142C401.909 213.647 410.126 199.105 411.671 196.114C413.703 192.177 416.048 191.6 420.14 191.435C417.232 187.612 412.994 182.099 407.869 181.902C405.383 181.808 403.268 183.573 401.314 184.859C399.968 185.745 395.548 187.98 397.91 184.634C399.559 182.298 402.72 181.521 404.345 179.088C403.023 177.434 398.449 174.406 396.24 174.899C393.595 175.489 392.787 180.678 391.118 182.471C389.245 179.288 392.843 176.116 394.087 173.51C390.603 170.997 383.541 167.909 378.996 169.13C372.369 170.913 378.541 179.492 379.795 180.915C380.719 181.965 382.177 183.863 379.696 183.039C377.521 182.316 374.718 177.505 373.815 175.435C373.373 174.425 373.297 171.543 372.369 170.913C371.31 170.193 353.688 178.038 351.702 183.869C349.637 189.926 359.464 196.747 364.607 197.514Z" fill="#82F48A"/>
    <path d="M36.6417 126.54C44.0957 123.704 37.3759 120.387 32.6967 119.063C28.9121 117.993 19.4337 116.247 23.2804 109.786C27.3096 103.019 31.1699 111.377 34.3751 112.321C41.5389 114.429 34.0837 105.444 32.3047 103.047C29.8665 99.7642 24.7386 93.0577 31.0712 91.9397C36.1923 91.0359 41.4964 98.172 43.6213 101.728C45.1354 104.264 48.8603 116.139 52.7367 113.506C55.671 111.513 52.6355 99.623 59.6406 108.122C62.4895 111.577 62.0301 117.13 63.3143 121.084C65.1948 126.873 65.9874 129.272 71.1272 127.786C73.7908 127.016 73.8771 123.674 77.1645 125.931C78.8565 127.093 79.3576 132.443 79.3435 134.302C79.2119 151.368 72.3877 162.799 69.1687 164.272C64.8113 166.267 56.7124 163.385 52.9859 161.245C51.1329 160.18 47.7534 158.422 47.9914 155.724C48.2585 152.697 52.9332 153.132 53.1067 151.353C53.5988 146.311 44.3217 151.129 41.7529 150.41C38.4263 149.478 32.9151 143.535 36.4058 140.391C36.7641 140.068 51.2643 139.018 42.9696 134.401C38.3771 131.846 33.452 138.937 29.0217 133.903C22.6454 126.657 33.8472 127.603 36.6417 126.54Z" fill="#82F48A"/>
    <path d="M37.8785 129.224C41.0812 127.872 44.3916 126.652 47.879 126.355C45.4258 123.29 42.8548 120.254 40.9881 116.85C40.4613 115.891 42.0301 115.228 42.5532 116.181C42.7809 116.596 43.0346 116.999 43.2805 117.405C43.5494 116.365 43.2268 114.811 43.1294 113.981C42.8773 111.838 42.0708 109.912 41.2278 107.947C40.7961 106.94 42.3601 106.269 42.7929 107.277C43.8865 109.828 44.7492 112.264 44.9422 115.05C45.0368 116.42 45.1182 117.905 44.3227 119.039C46.9609 122.953 50.246 126.558 52.9964 130.355C54.1716 128.492 55.0351 126.552 55.4329 124.345C55.8658 121.941 55.5727 119.498 55.8216 117.078C55.934 115.988 57.6236 116.198 57.5115 117.29C57.2111 120.199 57.5527 123.057 56.8211 125.926C56.2698 128.088 55.281 130 54.0533 131.846C57.2149 136.417 60.1337 141.168 62.5332 146.185C63.3305 147.852 64.0583 149.55 64.7627 151.26C66.3505 148.887 67.6653 146.411 68.58 143.683C69.0888 142.167 69.6526 140.56 69.8559 138.971C70.0099 137.768 69.8834 136.632 70.3564 135.492C70.7776 134.479 72.3577 135.111 71.9371 136.124C71.3567 137.523 71.5523 139.345 71.1848 140.84C70.83 142.283 70.3896 143.716 69.8885 145.115C68.8638 147.977 67.3553 150.575 65.6148 153.056L65.5298 153.137C66.7187 156.09 67.8801 159.055 69.2033 161.944C69.3081 162.026 69.4021 162.131 69.4647 162.288C69.5919 162.612 69.8431 163.059 69.9262 163.452C72.29 169.418 74.6697 175.38 76.9574 181.376C77.3467 182.397 75.7839 183.072 75.392 182.046C73.1133 176.071 70.7412 170.129 68.3851 164.184L68.3365 164.115C67.5816 162.558 66.8881 160.97 66.2188 159.372C63.122 160.159 59.6798 159.255 56.7917 158.094C55.7737 157.685 56.4064 156.105 57.4246 156.514C59.936 157.523 62.8429 158.307 65.5573 157.772C64.0673 154.115 62.6643 150.416 60.9684 146.855C60.2935 145.438 59.5707 144.046 58.8166 142.672C58.7609 142.711 58.715 142.758 58.6426 142.788C54.4204 144.501 49.8641 145.187 45.3447 144.478C44.2648 144.308 44.4703 142.617 45.5562 142.788C49.7916 143.453 54.0134 142.829 57.9734 141.222L57.9964 141.218C55.671 137.161 53.0506 133.272 50.2985 129.493C49.8299 128.85 49.3417 128.214 48.8466 127.582C48.7492 127.815 48.5515 128.003 48.2111 128.031C44.8273 128.301 41.6518 129.479 38.5481 130.79C37.5394 131.215 36.8677 129.651 37.8785 129.224Z" fill="#82F48A"/>
    <path d="M5.14179 149.134C12.6679 152.06 20.3653 153.822 27.4115 157.93C34.183 161.877 40.7574 166.359 46.9189 171.199C52.5969 175.66 58.0376 180.394 63.7392 184.834C70.396 190.017 75.0858 196.309 80.7721 202.407C81.6849 203.384 83.2887 202.056 82.3733 201.075C77.2182 195.547 72.9585 189.589 67.0408 184.788C60.7549 179.689 54.4853 174.498 48.1237 169.501C41.7142 164.465 34.8552 159.805 27.7823 155.751C20.8652 151.787 13.2242 150.044 5.85141 147.176C4.60246 146.691 3.89259 148.648 5.14179 149.134Z" fill="#9BDE9D"/>
    <path d="M6.48892 148.565C4.87341 147.853 2.01822 148.111 0.706109 149.337C-0.830227 150.772 0.577518 152.161 2.24469 152.48C4.10062 152.836 6.01323 152.136 7.81347 151.784C9.6809 151.419 11.7021 151.831 13.4532 151.222C12.3796 150.383 10.3341 149.875 9.03 149.54C7.64172 149.184 6.3603 148.503 5.00125 148.135" fill="#9BDE9D"/>
    <path d="M9.80728 149.988C6.94506 148.98 2.72285 149.301 0.722343 146.518C-0.587275 144.697 -0.129096 143.045 2.20599 142.846C3.97828 142.695 5.41948 143.867 6.54805 145.078C7.98926 146.623 9.70162 148.573 10.7753 150.339" fill="#9BDE9D"/>
    <path d="M17.7099 151.759C16.6697 148.447 15.462 144.238 12.2597 142.244C10.2639 141.002 9.87644 143.438 10.3675 144.825C11.4877 147.988 14.5776 150.671 17.3783 152.345L17.7099 151.759Z" fill="#9BDE9D"/>
    <path d="M25.1573 154.899C24.5244 150.707 23.8577 145.401 20.3683 142.395C18.1935 140.521 17.2679 143.387 17.6 145.153C18.3576 149.18 21.5818 152.998 24.6475 155.544L25.1573 154.899Z" fill="#9BDE9D"/>
    <path d="M41.0346 164.876C41.1437 160.637 41.4133 155.296 38.5027 151.727C36.6887 149.502 35.2767 152.163 35.2955 153.96C35.3379 158.057 37.8465 162.379 40.4191 165.421L41.0346 164.876Z" fill="#9BDE9D"/>
    <path d="M53.7866 174.87C55.2428 170.076 57.2286 164.074 55.0339 159.092C53.6655 155.986 51.2211 158.575 50.6772 160.628C49.4383 165.31 50.9384 171.024 52.9145 175.299L53.7866 174.87Z" fill="#9BDE9D"/>
    <path d="M35.7529 160.869C34.3791 156.181 32.7908 150.225 28.3796 147.398C25.6306 145.636 25.0375 149.081 25.6904 151.043C27.1791 155.52 31.4196 159.322 35.2793 161.697L35.7529 160.869Z" fill="#9BDE9D"/>
    <path d="M17.0767 153.504C14.1548 155.379 10.5294 157.835 6.79401 157.312C4.46642 156.986 5.73034 154.867 6.99626 154.118C9.88392 152.41 13.9751 152.332 17.1981 152.842L17.0767 153.504Z" fill="#9BDE9D"/>
    <path d="M34.2817 159.976C30.4894 161.079 25.7408 162.589 21.8353 160.812C19.4003 159.706 21.4627 157.803 23.0854 157.394C26.787 156.461 31.2767 157.695 34.6275 159.292L34.2817 159.976Z" fill="#9BDE9D"/>
    <path d="M42.9571 168.331C38.8902 169.515 33.7995 171.134 29.6113 169.229C27.0013 168.042 29.2118 166.002 30.9521 165.564C34.9214 164.563 39.7341 165.887 43.3272 167.598L42.9571 168.331Z" fill="#9BDE9D"/>
    <path d="M51.9996 175.23C46.5744 176.585 39.7896 178.462 34.0458 175.744C30.4657 174.048 33.3454 171.471 35.6705 170.98C40.9726 169.861 47.5307 171.846 52.4628 174.283L51.9996 175.23Z" fill="#9BDE9D"/>
    <path d="M47.1249 169.905C48.055 167.305 49.4603 165.039 49.5594 162.213C49.6456 159.758 48.5752 157.524 46.9968 155.701C46.3009 154.897 45.5682 153.826 44.4041 153.69C42.7704 153.499 43.4558 155.246 43.7624 156.311C44.4153 158.578 44.9509 160.924 45.3522 163.239C45.5738 164.517 45.8203 165.708 46.1462 166.923C46.3609 167.725 46.3567 169.321 46.7025 169.862" fill="#9BDE9D"/>
    <path d="M41.4862 178.58C44.5182 178.617 54.296 179.561 58.0551 179.608C58.9127 180.295 59.7879 180.967 60.6718 181.642C54.5414 183.128 44.4333 184.1 41.7634 183.464C40.6113 183.19 38.2173 182.189 37.8041 181.009C37.06 178.879 40.1629 178.566 41.4862 178.58Z" fill="#9BDE9D"/>
    <path d="M50.2091 193.542C53.8486 192.734 65.8187 191.116 70.3308 190.115C71.551 190.697 72.7866 191.255 74.0356 191.814C67.1143 195.317 55.2885 199.322 51.9132 199.311C50.457 199.307 47.3104 198.781 46.484 197.485C44.9938 195.144 48.6206 193.896 50.2091 193.542Z" fill="#9BDE9D"/>
    <path d="M62.8024 182.687C63.2893 181.058 67.4512 176.213 65.6448 167.315C65.3891 166.053 64.9321 164.396 63.5864 163.907C61.718 163.228 61.5802 165.322 61.5302 166.647C61.4308 169.262 61.7649 179.198 61.5257 181.677" fill="#9BDE9D"/>
    <path d="M67.7689 187.119C65.9337 187.646 64.1024 188.787 62.2011 189.398C60.1632 190.053 48.8553 191.974 45.2847 191.241C43.7349 190.923 40.713 191.036 40.3292 189.064C39.9576 187.158 42.2767 185.973 43.7716 185.48C47.2436 184.336 63.65 185.493 67.8207 186.37" fill="#9BDE9D"/>
    <path d="M69.2825 187.777C73.5767 181.677 75.2821 169.047 74.235 167.767C71.9614 164.989 69.0933 169.317 68.527 171.423C67.2581 176.143 68.4068 187.255 69.1943 187.416" fill="#9BDE9D"/>
    <path d="M80.3944 197.514C83.2254 199.834 86.865 202.773 89.8086 204.921C93.6451 207.722 93.6444 210.477 90.3423 213.788C86.2661 217.877 79.0092 220.109 73.3945 221.003C71.4091 221.319 71.0377 221.183 70.9975 218.929C70.9681 217.264 71.1886 215.721 71.039 214.042C70.7501 210.801 70.2311 208.022 68.3269 205.348C65.3239 201.131 65.0542 206.371 65.9158 208.797C66.9194 211.623 67.5886 214.678 67.6142 217.739C67.6576 222.995 50.4895 215.115 47.9696 212.105C49.9334 210.61 52.2318 204.438 50.7062 202.021C49.3629 199.893 48.7861 202.226 48.4945 203.637C48.1594 205.261 48.0033 206.796 47.0388 208.142C43.0937 213.647 34.8757 199.105 33.3309 196.114C31.2984 192.177 28.9546 191.6 24.8619 191.435C27.7703 187.612 32.0083 182.099 37.1337 181.902C39.6188 181.808 41.7349 183.573 43.6887 184.859C45.0338 185.745 49.454 187.98 47.0924 184.634C45.4433 182.298 42.2822 181.521 40.6575 179.088C41.9788 177.434 46.5526 174.406 48.7624 174.899C51.4076 175.489 52.2148 180.678 53.8845 182.471C55.7566 179.288 52.1594 176.116 50.9152 173.51C54.3991 170.997 61.4613 167.909 66.0066 169.13C72.6332 170.913 66.461 179.492 65.2076 180.915C64.2833 181.965 62.8253 183.863 65.306 183.039C67.4806 182.316 70.2841 177.505 71.1873 175.435C71.629 174.425 71.7044 171.543 72.6332 170.913C73.6917 170.193 91.3139 178.038 93.3005 183.869C95.3645 189.926 85.538 196.747 80.3944 197.514Z" fill="#82F48A"/>
    <path d="M77.1888 213.963V93.6271H156.169V104.135H89.0528V148.371H145.661V158.201H89.0528V213.963H77.1888ZM203.853 93.6271H213.853L263.852 213.963H251.31L235.717 176.337H181.651L166.227 213.963H153.516L203.853 93.6271ZM233.005 167.015L208.769 107.525L184.193 167.015H233.005ZM325.106 214.81C316.632 214.81 308.949 213.115 302.056 209.725C295.164 206.223 289.232 201.59 284.26 195.827C279.289 190.065 275.447 183.568 272.735 176.337C270.023 168.992 268.667 161.478 268.667 153.795C268.667 145.772 270.08 138.146 272.905 130.914C275.729 123.57 279.684 117.073 284.769 111.423C289.966 105.661 296.011 101.141 302.904 97.8643C309.796 94.4745 317.254 92.7797 325.276 92.7797C333.637 92.7797 341.264 94.531 348.157 98.0338C355.049 101.536 360.981 106.226 365.953 112.101C371.037 117.977 374.879 124.53 377.478 131.762C380.19 138.993 381.545 146.394 381.545 153.964C381.545 162.1 380.02 169.953 376.969 177.523C374.032 184.98 369.964 191.534 364.766 197.183L378.834 213.963H367.139L358.156 203.285C353.524 206.901 348.383 209.725 342.733 211.759C337.197 213.793 331.321 214.81 325.106 214.81ZM325.106 204.132C330.191 204.132 334.88 203.341 339.174 201.759C343.581 200.065 347.535 197.748 351.038 194.811L335.954 177.014H347.648L357.478 188.54C361.433 183.794 364.427 178.37 366.461 172.269C368.608 166.167 369.681 160.009 369.681 153.795C369.681 147.241 368.608 140.97 366.461 134.982C364.314 128.993 361.207 123.626 357.139 118.881C353.185 114.135 348.496 110.406 343.072 107.694C337.648 104.87 331.66 103.457 325.106 103.457C318.327 103.457 312.169 104.926 306.632 107.864C301.209 110.689 296.52 114.53 292.565 119.389C288.723 124.135 285.729 129.502 283.582 135.49C281.548 141.479 280.532 147.58 280.532 153.795C280.532 160.348 281.605 166.619 283.752 172.608C285.899 178.596 288.949 183.963 292.904 188.709C296.859 193.455 301.548 197.24 306.971 200.065C312.508 202.776 318.553 204.132 325.106 204.132Z" fill="#82F48A"/>
    <path d="M70.7062 213.963V93.6271H149.687V104.135H82.5702V148.371H139.179V158.201H82.5702V213.963H70.7062ZM197.371 93.6271H207.371L257.369 213.963H244.827L229.234 176.337H175.168L159.745 213.963H147.033L197.371 93.6271ZM226.522 167.015L202.286 107.525L177.71 167.015H226.522ZM318.624 214.81C310.15 214.81 302.466 213.115 295.574 209.725C288.681 206.223 282.749 201.59 277.778 195.827C272.806 190.065 268.964 183.568 266.253 176.337C263.541 168.992 262.185 161.478 262.185 153.795C262.185 145.772 263.597 138.146 266.422 130.914C269.247 123.57 273.201 117.073 278.286 111.423C283.484 105.661 289.529 101.141 296.421 97.8643C303.314 94.4745 310.771 92.7797 318.793 92.7797C327.155 92.7797 334.782 94.531 341.674 98.0338C348.566 101.536 354.498 106.226 359.47 112.101C364.555 117.977 368.396 124.53 370.995 131.762C373.707 138.993 375.063 146.394 375.063 153.964C375.063 162.1 373.537 169.953 370.487 177.523C367.549 184.98 363.481 191.534 358.284 197.183L372.351 213.963H360.656L351.674 203.285C347.041 206.901 341.9 209.725 336.25 211.759C330.714 213.793 324.838 214.81 318.624 214.81ZM318.624 204.132C323.708 204.132 328.398 203.341 332.691 201.759C337.098 200.065 341.053 197.748 344.555 194.811L329.471 177.014H341.166L350.996 188.54C354.95 183.794 357.945 178.37 359.979 172.269C362.125 166.167 363.199 160.009 363.199 153.795C363.199 147.241 362.125 140.97 359.979 134.982C357.832 128.993 354.724 123.626 350.657 118.881C346.702 114.135 342.013 110.406 336.589 107.694C331.166 104.87 325.177 103.457 318.624 103.457C311.844 103.457 305.686 104.926 300.15 107.864C294.726 110.689 290.037 114.53 286.082 119.389C282.241 124.135 279.246 129.502 277.1 135.49C275.066 141.479 274.049 147.58 274.049 153.795C274.049 160.348 275.122 166.619 277.269 172.608C279.416 178.596 282.467 183.963 286.421 188.709C290.376 193.455 295.065 197.24 300.489 200.065C306.025 202.776 312.07 204.132 318.624 204.132Z" fill="#E7F4ED"/>
    <path d="M91.2429 202.345L91.3702 202.179C92.1206 201.123 92.2369 199.735 91.6584 198.561C91.4021 198.045 91.3817 197.439 91.6028 196.906L91.6789 196.73C92.2439 195.363 91.2436 194.905 89.7824 194.656C89.7824 194.656 87.9012 193.441 87.813 193.281L86.9028 195.53C86.9475 195.669 88.5225 196.16 88.6037 196.236L90.0598 202.086C90.194 202.628 90.892 202.781 91.2429 202.345Z" fill="#F0412A"/>
    <path d="M70.7667 161.621L63.1587 178.763C62.1567 181.02 61.9959 183.201 62.715 184.863C64.6515 189.336 88.0098 195.927 88.0098 195.927L88.061 193.476L71.9946 180.861L82.7268 163.42L70.7667 161.621Z" fill="url(#paint0_linear)"/>
    <path d="M81.4689 224.187L81.2759 224.172C80.7057 224.129 80.1355 224.331 79.7239 224.733C78.783 225.648 76.5126 225.448 75.277 225.06C75.2099 225.043 75.1498 225.019 75.0827 224.994C74.5611 224.797 74.4869 224.084 74.9618 223.785L79.7022 220.576C79.7086 220.556 79.706 220.477 79.6964 220.352L82.2858 220.627C82.3478 220.937 82.3938 221.147 82.3938 221.147C82.608 222.611 82.9423 224.302 81.4689 224.187Z" fill="#F0412A"/>
    <path d="M89.5778 165.031C84.3185 180.087 82.1765 198.959 82.319 220.633L82.2858 220.627L79.6964 220.352L79.6095 220.34C75.137 204.645 74.1826 188.352 78.0421 171.164L80.4321 163.375L89.5778 165.031Z" fill="url(#paint1_linear)"/>
    <path d="M69.8559 163.675L89.5829 165.298L89.6021 164.488C89.659 161.907 89.2346 159.36 88.5187 156.883C87.781 154.341 87.7024 151.642 88.3064 149.033L90.5174 139.477C91.0672 137.118 89.9032 134.691 87.719 133.64L85.182 132.413L83.2702 131.485L82.971 131.341L77.8791 131.492L77.6407 131.573L75.5946 132.291L72.9688 133.208C70.5117 134.073 69.069 136.62 69.6053 139.169L71.9013 150.099C72.5181 153.03 72.2714 156.07 71.211 158.862L69.8559 163.675Z" fill="url(#paint2_linear)"/>
    <path d="M77.7507 134.232C77.8018 135.954 79.0323 137.313 80.4928 137.272C81.9534 137.232 83.095 135.8 83.0509 134.08C83.042 133.878 83.2702 131.485 83.2702 131.485L82.971 131.341L77.8791 131.492L77.6407 131.573C77.6407 131.573 77.7455 133.958 77.7507 134.232Z" fill="#EA803F"/>
    <path d="M82.1714 155.274L77.9642 155.396C77.6919 155.403 77.4777 155.63 77.486 155.902L77.6733 162.391C77.681 162.663 77.9079 162.877 78.1802 162.869L82.3881 162.748C82.6591 162.74 82.8732 162.513 82.8662 162.241L82.6783 155.752C82.6706 155.479 82.4437 155.266 82.1714 155.274Z" fill="#DAE3EA"/>
    <path d="M78.9671 156.705C78.9671 156.901 78.8085 157.06 78.6123 157.06C78.4167 157.06 78.2582 156.901 78.2582 156.705C78.2582 156.509 78.4167 156.35 78.6123 156.35C78.8085 156.35 78.9671 156.509 78.9671 156.705Z" fill="#82F48A"/>
    <path d="M73.1586 127.954C73.4891 129.202 74.446 129.575 75.3409 129.796C75.6816 130.451 76.1271 131.096 76.6384 131.66C76.7701 131.809 76.9011 131.95 77.0392 132.084C77.7558 132.877 78.6647 133.453 79.6849 133.669L79.7769 133.687C79.8332 133.698 79.8894 133.717 79.9527 133.728L80.0716 133.73L80.1764 133.74C80.2531 133.744 80.3375 133.747 80.4136 133.744C80.4903 133.741 80.574 133.738 80.6501 133.728L80.7543 133.717L80.8725 133.698C80.9345 133.688 80.9895 133.665 81.0515 133.648L81.141 133.63C82.1484 133.352 83.0222 132.723 83.6856 131.887C84.0391 131.502 84.3702 131.07 84.6515 130.62C84.888 130.261 85.0887 129.89 85.2549 129.513C86.1287 129.233 87.067 128.811 87.3221 127.545C87.5183 126.547 87.2128 125.241 86.3818 125.198C86.137 125.18 85.8545 125.282 85.5834 125.454C85.1731 123.805 84.2507 122.056 83.1347 120.875C82.6712 120.287 82.1388 119.904 81.5654 119.684C81.2522 119.544 80.9422 119.459 80.6335 119.436C80.4174 119.424 80.2077 119.426 79.9994 119.434C79.7897 119.436 79.5813 119.452 79.3736 119.474C79.061 119.508 78.7587 119.618 78.4506 119.777C77.8964 120.03 77.3895 120.434 76.9555 121.052C75.9117 122.302 75.0852 124.094 74.7707 125.767C74.492 125.611 74.2095 125.525 73.9595 125.556C73.1407 125.652 72.9087 126.966 73.1586 127.954Z" fill="#EE854C"/>
    <path d="M76.6384 131.66C76.7701 131.809 76.9011 131.95 77.0392 132.084C77.7558 132.877 78.6647 133.453 79.6849 133.669L79.7769 133.687C79.8332 133.698 79.8894 133.717 79.9527 133.728L80.0716 133.73L80.1764 133.74C80.2531 133.744 80.3375 133.747 80.4136 133.744C80.4903 133.741 80.574 133.738 80.6501 133.728L80.7543 133.717L80.8725 133.698C80.9345 133.688 80.9895 133.665 81.0515 133.648L81.141 133.63C82.1484 133.352 83.0221 132.723 83.6856 131.887C84.0391 131.502 84.3702 131.07 84.6515 130.62C84.4182 130.21 84.0474 129.842 83.5917 129.617C83.0937 129.372 82.5178 129.277 81.9566 129.196C81.1768 129.074 80.3803 129.037 79.5896 129.133C78.5279 129.267 77.0993 129.995 76.7893 130.928C76.7023 131.184 76.6493 131.43 76.6384 131.66Z" fill="#EE854C"/>
    <path d="M82.6278 127.088C82.6726 127.385 82.4904 127.658 82.2206 127.7C81.9515 127.74 81.6965 127.533 81.6511 127.236C81.6064 126.94 81.7885 126.666 82.0583 126.625C82.328 126.584 82.5824 126.792 82.6278 127.088Z" fill="#9BDE9D"/>
    <path d="M78.2103 127.224C78.2499 127.484 78.0907 127.723 77.8549 127.758C77.619 127.794 77.3953 127.613 77.3563 127.353C77.3166 127.093 77.4758 126.853 77.7117 126.818C77.9482 126.783 78.1713 126.964 78.2103 127.224Z" fill="#9BDE9D"/>
    <path d="M83.0771 125.909C83.0151 125.922 82.948 125.898 82.9078 125.843C82.2781 124.977 81.4708 125.487 81.4357 125.509C81.3583 125.56 81.2548 125.537 81.203 125.46C81.1525 125.382 81.1749 125.277 81.2529 125.227C81.6338 124.979 82.5281 124.748 83.1807 125.645C83.235 125.72 83.2184 125.825 83.143 125.88L83.0771 125.909Z" fill="#9BDE9D"/>
    <path d="M80.45 130.813C80.4679 130.751 80.5197 130.702 80.5868 130.691C81.6447 130.526 81.5597 129.575 81.5559 129.535C81.5463 129.442 81.6134 129.361 81.7054 129.35C81.7981 129.341 81.8812 129.408 81.8902 129.501C81.9375 129.953 81.7342 130.854 80.6386 131.025C80.5472 131.039 80.4609 130.976 80.4468 130.884L80.45 130.813Z" fill="#9BDE9D"/>
    <path d="M78.3809 125.958L78.2326 125.996C77.3787 125.716 77.0795 126.46 77.0667 126.492C77.0386 126.565 76.9574 126.6 76.8839 126.574C76.811 126.545 76.7746 126.463 76.8034 126.39C76.9408 126.034 77.4368 125.437 78.3208 125.728C78.3956 125.752 78.4359 125.832 78.411 125.906L78.3809 125.958Z" fill="#9BDE9D"/>
    <path d="M79.5839 130.004C79.4669 130.007 79.3563 129.979 79.2579 129.919C78.946 129.728 78.8546 129.272 79.0156 128.701L79.3614 126.803C79.3749 126.73 79.442 126.681 79.5181 126.694C79.5922 126.708 79.6401 126.778 79.6261 126.851L79.2777 128.762C79.1269 129.302 79.2419 129.593 79.3985 129.689C79.5602 129.787 79.7999 129.722 80.0122 129.524L80.2084 129.523L80.2129 129.706C80.0064 129.897 79.7859 129.998 79.5839 130.004Z" fill="#9BDE9D"/>
    <path d="M86.3057 159.523L85.5892 160.104C84.8976 160.666 84.0442 160.987 83.1583 161.012L80.8994 161.077C80.1246 161.099 79.5545 160.34 79.7661 159.577C79.8996 159.08 80.3337 158.741 80.8316 158.727L80.9364 158.729L82.6891 158.845C82.6891 158.845 82.6661 158.045 82.6546 157.633L83.9458 158.637L84.9685 157.572L86.3057 159.523Z" fill="#EE854C"/>
    <path d="M94.3827 152.982L86.3058 159.523L84.9686 157.572L90.7744 151.534L90.8569 151.391L90.0285 148.956L87.62 141.912L84.4207 133.745C84.1216 132.978 84.8688 132.211 85.6359 132.503C88.2195 133.469 90.0131 135.012 90.9841 137.898L94.2562 147.344L95.1996 150.138H95.2054C95.5493 151.168 95.2194 152.305 94.3827 152.982Z" fill="url(#paint3_linear)"/>
    <path d="M66.0858 165.912C66.1926 167.783 65.9177 168.635 65.3616 170.177C64.8713 170.184 64.8503 169.38 64.7537 169.015C64.7384 168.946 64.6802 168.815 64.6598 168.739C64.2309 169.107 64.0423 169.635 63.859 170.133C63.6688 170.632 63.7255 171.575 63.4066 171.915C63.0933 172.25 63.0338 172.795 62.3352 171.866C61.1487 170.286 62.2423 167.624 64.0864 166.432C63.909 165.394 63.7442 164.501 63.5993 163.689L65.8647 163.8C65.873 163.999 65.8922 164.179 65.9101 164.336C66.2041 166.514 66.0513 165.212 66.0858 165.912Z" fill="#EE854C"/>
    <path d="M75.7742 132.906C75.7218 134.755 75.578 136.525 75.3792 138.355C72.3609 142.802 69.6615 147.048 68.052 152.22C68.0431 152.291 68.0073 152.128 68.022 152.344C66.4202 155.015 65.7215 161.183 65.8647 163.8L63.5993 163.689C63.0608 160.668 62.8116 158.732 63.504 154.551C64.3836 149.235 66.8011 141.273 69.7849 136.412C71.351 133.871 72.7451 133.107 75.3869 132.87C75.649 132.847 75.5524 132.921 75.7742 132.906Z" fill="url(#paint4_linear)"/>
    <path d="M86.2502 122.412C86.0757 121.489 85.8085 120.268 85.2153 119.509C84.5863 118.704 83.1801 117.966 82.1733 117.801C81.5361 117.696 80.8892 117.746 80.2398 117.716C78.9812 117.66 77.8018 117.319 76.5822 117.16C76.3707 117.584 76.8846 118.176 77.1978 118.407C76.1444 118.95 74.6442 118.671 73.3843 118.339C74.0369 120.413 75.3786 120.447 75.7743 120.897C74.8142 121.501 73.0634 121.284 71.7665 120.146C72.4031 125.241 74.1795 124.737 74.5598 125.732C74.4383 126.598 74.8672 128.032 75.4572 128.496C75.9584 127.97 75.9437 126.547 76.0907 125.843C76.2486 125.087 76.5317 124.421 76.7804 123.702C76.6653 124.323 77.9341 124.612 78.3803 124.639C78.9818 124.675 79.6133 124.641 80.188 124.503C79.6677 123.997 79.6478 123.679 79.6223 122.97C80.1861 123.848 82.3728 124.907 83.3987 124.514C83.1309 124.134 82.8969 123.782 82.826 123.316C83.5393 123.982 84.7551 124.423 85.159 125.331C85.5982 126.32 85.6174 127.427 85.6027 128.491C85.9012 127.596 85.9312 126.567 86.153 125.628C86.4055 124.562 86.4547 123.498 86.2502 122.412Z" fill="#F0412A"/>
    <path d="M120.972 53.941C120.851 52.8064 120.701 51.4641 119.689 51.0263C117.441 50.0547 114.071 57.6426 114.123 59.1358C114.156 60.0716 114.377 60.4756 114.893 61.1583C115.422 61.8588 115.648 61.9636 115.076 62.6386C113.849 64.0877 110.894 66.7954 113.026 68.844C112.337 69.6181 111.158 69.9134 110.367 70.6453C109.655 71.3043 108.739 72.6511 108.653 73.7902C109.508 73.6163 110.379 72.9368 111.26 72.6946C112.305 72.4076 113.415 72.2772 114.488 72.0637C116.128 71.737 119.459 71.4251 120.385 69.427C120.864 68.3921 120.798 66.5927 120.858 65.4032C120.972 63.1027 121.355 60.8252 121.313 58.5081C121.285 56.9913 121.13 55.4303 120.972 53.941Z" fill="#F0412A"/>
    <path d="M122.541 53.941C122.661 52.8064 122.812 51.4641 123.823 51.0263C126.071 50.0547 129.442 57.6426 129.39 59.1358C129.357 60.0716 129.136 60.4756 128.62 61.1583C128.09 61.8588 127.865 61.9636 128.437 62.6386C129.663 64.0877 132.619 66.7954 130.487 68.844C131.176 69.6181 132.355 69.9134 133.145 70.6453C133.857 71.3043 134.773 72.6511 134.859 73.7902C134.004 73.6163 133.133 72.9368 132.253 72.6946C131.208 72.4076 130.098 72.2772 129.025 72.0637C127.384 71.737 124.053 71.4251 123.128 69.427C122.648 68.3921 122.714 66.5927 122.655 65.4032C122.541 63.1027 122.158 60.8252 122.2 58.5081C122.227 56.9913 122.383 55.4303 122.541 53.941Z" fill="#F0412A"/>
    <path d="M126.175 67.9433C126.175 67.9433 129.893 66.7135 133.028 71.6488C134.511 73.9825 136.083 76.2581 137.861 78.3751L140.154 81.1058C141.316 82.4897 140.608 84.6112 138.849 85.0203L127.702 76.2306L126.175 67.9433Z" fill="url(#paint5_linear)"/>
    <path d="M117.522 68.1287C117.522 68.1287 113.805 66.8982 110.67 71.8341C109.187 74.1672 107.614 76.4428 105.837 78.5598L103.543 81.2911C102.382 82.6744 103.089 84.7959 104.848 85.205L115.995 76.4153L117.522 68.1287Z" fill="url(#paint6_linear)"/>
    <path d="M111.85 94.2752H105.915L115.435 102.581L124.605 103.244L136.912 93.9691L129.871 93.7492L111.85 94.2752Z" fill="url(#paint7_linear)"/>
    <path d="M124.978 67.602L127.585 73.1298C126.934 74.8007 116.742 75.452 115.979 73.8278L117.984 67.8264L118.616 67.7509C119.421 67.5688 119.8 67.26 119.978 66.4546V66.4502C120.086 65.6825 120.015 65.074 119.767 64.615L123.316 63.7681L123.447 65.2095C123.493 65.7247 123.521 66.2488 123.54 66.7634V66.7685C123.544 67.1475 123.826 67.4614 124.2 67.4985L124.978 67.602Z" fill="#EA803F"/>
    <path d="M140.964 99.1025C140.586 100.757 139.286 101.954 137.735 102.286C137.592 102.315 137.453 102.338 137.316 102.349C131.951 103.827 126.052 104.869 119.702 105.562L117.28 102.361C124.191 100.088 130.358 97.6822 135.066 94.3724C135.891 93.9825 136.841 93.8508 137.792 94.0688C140.059 94.584 141.48 96.8404 140.964 99.1025Z" fill="url(#paint8_linear)"/>
    <path d="M119.702 105.562C117.926 105.757 116.116 105.917 114.272 106.06L111.157 108.958L111.066 109.032C109.663 110.137 107.636 108.861 107.945 107.102L108.128 106.06L108.134 106.043C108.5 105.018 109.417 104.296 110.482 104.102L113.717 103.512C114.925 103.128 116.11 102.75 117.28 102.361L119.702 105.562Z" fill="#F0412A"/>
    <path d="M123.802 101.771C123.303 102.751 122.634 104.113 122.124 105.144C115.464 104.354 109.399 103.415 104.893 102.08C104.749 102.063 104.612 102.04 104.474 102.012C102.923 101.685 101.622 100.483 101.239 98.8335C100.729 96.5656 102.15 94.3092 104.417 93.794C105.368 93.5824 106.319 93.7141 107.143 94.0976C111.913 97.1843 117.565 99.6811 123.802 101.771Z" fill="url(#paint9_linear)"/>
    <path d="M130.909 108.769L130.817 108.694L127.65 105.751C125.777 105.551 123.928 105.35 122.124 105.144C122.634 104.113 123.303 102.751 123.802 101.771C125.404 102.315 127.049 102.83 128.733 103.317L128.726 103.334L131.486 103.838C132.558 104.033 133.468 104.76 133.841 105.78L133.846 105.797L134.03 106.839C134.333 108.597 132.305 109.874 130.909 108.769Z" fill="#F0412A"/>
    <path d="M129.869 93.7486C124.799 99.3135 118.719 99.0611 111.852 94.2773L116.322 87.0504C116.66 86.2687 116.814 85.4307 116.762 84.5831C116.729 83.9893 116.594 83.3993 116.365 82.8279L116.187 82.4022L115.017 79.5986C114.642 78.6903 114.455 77.7213 114.455 76.7523C114.455 75.9334 114.59 75.114 114.862 74.3233C115.279 73.1203 115.433 71.8425 115.311 70.5788L115.069 68.1537C115.829 67.914 116.865 67.8443 117.984 67.8264L116.327 72.7048C117.09 74.329 126.402 74.3757 127.052 72.7048L124.977 67.6021C125.916 67.5337 126.78 67.5803 127.522 67.8073C128.28 69.0147 127.86 72.0343 128.853 74.0472C129.869 76.1067 129.162 78.8124 128.085 80.9231L126.962 83.1136L126.035 84.9251C125.904 85.2856 125.857 85.726 125.857 86.1888C125.857 86.4087 125.862 86.6292 125.881 86.8491C125.913 87.2377 126.035 87.6117 126.246 87.944L129.869 93.7486Z" fill="url(#paint10_linear)"/>
    <path d="M127.934 57.2283C127.694 57.2072 127.421 57.2954 127.155 57.4539C126.802 55.8425 125.954 54.1269 124.908 52.9469C124.469 52.3608 123.964 51.9792 123.415 51.7497C123.118 51.6052 122.818 51.5074 122.517 51.4812C122.311 51.464 122.106 51.4563 121.905 51.4595C121.704 51.4563 121.5 51.464 121.293 51.4812C120.993 51.5074 120.692 51.6052 120.395 51.7497C119.846 51.9798 119.342 52.3608 118.903 52.9469C117.857 54.1269 117.009 55.8425 116.656 57.4539C116.389 57.2954 116.116 57.2072 115.877 57.2283C115.074 57.298 114.812 58.5694 115.033 59.5339C115.313 60.7561 116.236 61.1396 117.092 61.3831C117.483 62.1917 118.038 62.9837 118.679 63.6465C119.349 64.4353 120.213 65.0208 121.199 65.2599L121.286 65.281C121.344 65.2938 121.4 65.311 121.458 65.3213L121.576 65.3328L121.675 65.343C121.752 65.3494 121.828 65.3538 121.905 65.3532C121.982 65.3538 122.058 65.3494 122.135 65.343L122.235 65.3328L122.353 65.3213C122.411 65.311 122.467 65.2938 122.524 65.281L122.611 65.2599C123.597 65.0208 124.462 64.4353 125.132 63.6453C125.773 62.983 126.327 62.1917 126.719 61.3831C127.575 61.1396 128.498 60.7561 128.778 59.5339C128.999 58.5694 128.736 57.298 127.934 57.2283Z" fill="#EE854C"/>
    <path d="M121.203 93.6918C121.203 93.6918 119.231 90.3206 118.862 89.9697L118.441 89.5708C117.973 89.1323 117.302 88.9866 116.695 89.1982L114.464 89.971C114.115 90.095 113.724 89.9921 113.482 89.7102L113.403 89.6194L112.284 88.3308C112.284 88.3308 106.888 79.4075 103.932 80.9224C102.361 82.1324 102.455 84.5294 104.106 85.6174L110.441 89.7869L112.143 90.908L113.263 91.6476C113.492 91.794 113.758 91.879 114.029 91.8873L116.826 91.9614C116.384 92.9484 120.381 95.0117 121.203 93.6918Z" fill="#EE854C"/>
    <path d="M122.328 93.2635C122.328 93.2635 124.3 89.8923 124.669 89.542L125.09 89.1425C125.559 88.704 126.23 88.5583 126.836 88.7699L129.067 89.5426C129.416 89.6673 129.807 89.5637 130.05 89.2819L130.128 89.1917L131.247 87.9031C131.247 87.9031 136.643 78.9792 139.599 80.4947C141.17 81.7048 141.076 84.1018 139.425 85.189L133.09 89.3592L131.388 90.4804L130.268 91.2199C130.039 91.3657 129.773 91.4513 129.503 91.459L126.707 91.5331C127.148 92.5207 123.151 94.584 122.328 93.2635Z" fill="#EE854C"/>
    <path d="M122.455 62.8592C123.049 62.6732 123.697 62.2391 123.971 61.2528C123.993 61.1723 123.946 61.0886 123.865 61.0656C123.785 61.0425 123.7 61.0899 123.677 61.1717C123.187 62.932 121.376 62.6821 121.298 62.6706C121.215 62.6578 121.138 62.716 121.124 62.7991C121.112 62.8822 121.169 62.9595 121.253 62.9723C121.264 62.9742 121.83 63.0541 122.455 62.8592Z" fill="#9BDE9D"/>
    <path d="M124.423 59.1895C124.404 59.4765 124.157 59.6926 123.873 59.6734C123.589 59.6542 123.373 59.4062 123.393 59.1198C123.412 58.8328 123.659 58.6168 123.943 58.6366C124.228 58.6551 124.443 58.9031 124.423 59.1895Z" fill="#9BDE9D"/>
    <path d="M120.234 59.1895C120.214 59.4765 119.968 59.6926 119.683 59.6734C119.399 59.6542 119.184 59.4062 119.203 59.1198C119.223 58.8328 119.469 58.6168 119.754 58.6366C120.038 58.6551 120.254 58.9031 120.234 59.1895Z" fill="#9BDE9D"/>
    <path d="M125.055 57.8867L125.07 57.881C125.147 57.8471 125.183 57.757 125.149 57.6803C124.747 56.7586 123.914 56.7918 123.527 56.9331C123.449 56.9625 123.408 57.05 123.438 57.1287C123.466 57.2079 123.546 57.2495 123.633 57.2188C123.66 57.2092 124.483 56.9184 124.869 57.8017C124.9 57.874 124.981 57.9091 125.055 57.8867Z" fill="#9BDE9D"/>
    <path d="M120.454 57.2956L120.463 57.2809C120.501 57.2061 120.472 57.114 120.397 57.0763C119.501 56.6193 118.879 57.1735 118.669 57.5289C118.627 57.6017 118.652 57.6938 118.724 57.736C118.797 57.7794 118.885 57.7615 118.933 57.6816C118.947 57.6567 119.399 56.9095 120.258 57.348C120.327 57.3838 120.412 57.3601 120.454 57.2956Z" fill="#9BDE9D"/>
    <path d="M121.385 61.3206C121.466 61.3206 121.532 61.2554 121.533 61.1736C121.533 61.0924 121.468 61.0259 121.386 61.0246C121.383 61.0246 121.101 61.0176 121.029 60.8655C120.996 60.7951 120.963 60.5772 121.374 60.0658C121.424 60.0025 121.414 59.9092 121.351 59.8581C121.287 59.8076 121.194 59.8178 121.142 59.8811C120.758 60.3605 120.633 60.7242 120.763 60.9933C120.917 61.3155 121.365 61.3206 121.384 61.3206H121.385Z" fill="#9BDE9D"/>
    <path d="M131.482 84.5927H111.472C110.827 84.5927 110.333 85.1648 110.429 85.8021L111.97 96.1744C111.588 96.2678 111.302 96.6116 111.302 97.0207C111.302 97.5014 111.695 97.8945 112.176 97.8945H130.651C131.132 97.8945 131.525 97.5014 131.525 97.0207C131.525 96.5522 131.151 96.17 130.687 96.1508L132.52 85.8315C132.635 85.1853 132.138 84.5927 131.482 84.5927Z" fill="url(#paint11_linear)"/>
    <path d="M122.736 90.2714C123.227 90.7636 123.227 91.5613 122.736 92.0535C122.243 92.5457 121.445 92.5457 120.953 92.0535C120.461 91.5613 120.461 90.7636 120.953 90.2714C121.445 89.7792 122.243 89.7792 122.736 90.2714Z" fill="#E7F4ED"/>
    <path d="M126.853 52.5431C125.671 50.8767 123.694 49.9274 121.721 50.0284C120.215 50.1058 117.896 51.0927 116.999 52.4401C114.705 55.8867 116.656 57.454 116.656 57.454C117.737 58.4033 119.678 55.9251 119.622 54.9081C120.66 55.2578 121.508 54.6563 121.722 53.608C121.638 54.6102 122.843 55.8676 123.829 55.1644C124.269 56.5982 126.462 58.9178 127.748 57.2322C128.547 56.1871 127.724 53.7729 126.853 52.5431Z" fill="#F0412A"/>
    <path d="M222.99 227.677L222.437 229.162H214.281C214.281 229.162 213.284 226.547 220.162 226.547L222.99 227.677Z" fill="#EE854C"/>
    <path d="M229.065 205.866L223.13 227.306L222.99 227.677L220.162 226.547C221.456 217.451 223.708 203.811 225.943 201.618L229.065 205.866Z" fill="url(#paint12_linear)"/>
    <path d="M277.58 230.815C278.39 230.492 278.879 229.799 279.006 229.059C279.157 228.184 278.818 227.24 277.958 226.691L277.221 226.226C276.84 225.983 276.391 225.86 275.936 225.867L269.87 225.987L269.354 228.993L276.089 230.89C276.58 231.029 277.108 231.004 277.58 230.815Z" fill="#F0412A"/>
    <path d="M250.796 219.817C250.796 219.817 257.725 206.152 257.788 206.338C257.852 206.524 263.256 226.458 263.256 226.458C263.256 226.458 245.373 232.339 237.175 224.655L250.796 219.817Z" fill="url(#paint13_linear)"/>
    <path d="M244.251 196.988C234.782 194.769 230.454 196.768 225.943 201.615C228.319 212.628 231.73 220.294 238.282 224.655L250.796 219.817L244.251 196.988Z" fill="url(#paint14_linear)"/>
    <path d="M233.66 198.265C233.66 200.116 234.931 201.615 236.503 201.615C238.074 201.615 239.348 200.116 239.348 198.265C239.348 197.971 239.315 197.685 239.255 197.412L237.918 196.988H234.971L233.708 197.643C233.678 197.844 233.66 198.052 233.66 198.265Z" fill="#EA803F"/>
    <path d="M230.043 190.656C230.298 190.634 230.588 190.728 230.872 190.897C231.247 189.182 232.151 187.357 233.263 186.102C233.73 185.478 234.266 185.071 234.851 184.828C235.166 184.673 235.486 184.57 235.806 184.542C236.026 184.523 236.243 184.515 236.457 184.519C236.672 184.515 236.888 184.523 237.108 184.542C237.428 184.57 237.748 184.673 238.064 184.828C238.648 185.071 239.184 185.478 239.652 186.101C240.764 187.357 241.667 189.182 242.042 190.897C242.326 190.728 242.616 190.634 242.871 190.656C243.725 190.73 244.003 192.083 243.769 193.11C243.471 194.41 242.489 194.817 241.579 195.077C241.162 195.937 240.571 196.78 239.89 197.485C239.177 198.325 238.257 198.948 237.209 199.202L237.115 199.224C237.054 199.238 236.995 199.257 236.933 199.267L236.807 199.28L236.702 199.29C236.621 199.297 236.539 199.302 236.457 199.301C236.375 199.302 236.294 199.297 236.213 199.29L236.107 199.28L235.981 199.267C235.919 199.257 235.86 199.238 235.799 199.224L235.706 199.202C234.656 198.948 233.737 198.325 233.024 197.484C232.342 196.78 231.752 195.937 231.336 195.077C230.425 194.817 229.443 194.41 229.145 193.11C228.911 192.083 229.189 190.73 230.043 190.656Z" fill="#EE854C"/>
    <path d="M234.298 192.498C234.261 192.806 234.457 193.083 234.736 193.116C235.016 193.15 235.273 192.929 235.31 192.622C235.347 192.314 235.152 192.037 234.872 192.003C234.592 191.968 234.335 192.19 234.298 192.498Z" fill="#9BDE9D"/>
    <path d="M238.474 192.498C238.437 192.806 238.632 193.083 238.912 193.116C239.191 193.15 239.448 192.929 239.486 192.622C239.523 192.314 239.327 192.037 239.048 192.003C238.768 191.968 238.511 192.19 238.474 192.498Z" fill="#9BDE9D"/>
    <path d="M233.781 191.78C233.845 191.79 233.914 191.764 233.954 191.706C234.577 190.794 235.427 191.296 235.462 191.318C235.544 191.368 235.65 191.341 235.701 191.26C235.751 191.178 235.725 191.07 235.643 191.02C235.242 190.776 234.312 190.565 233.666 191.509C233.613 191.589 233.632 191.697 233.712 191.752L233.781 191.78Z" fill="#9BDE9D"/>
    <path d="M236.332 196.277C236.313 196.213 236.258 196.165 236.188 196.156C235.092 196.017 235.151 195.033 235.154 194.991C235.161 194.895 235.089 194.813 234.993 194.805C234.897 194.798 234.814 194.87 234.807 194.966C234.772 195.434 235.009 196.358 236.144 196.501C236.24 196.513 236.327 196.445 236.338 196.35L236.332 196.277Z" fill="#9BDE9D"/>
    <path d="M238.251 191.132L238.405 191.168C239.278 190.853 239.609 191.612 239.623 191.644C239.654 191.718 239.74 191.753 239.814 191.722C239.888 191.691 239.923 191.605 239.892 191.531C239.739 191.168 239.209 190.567 238.306 190.893C238.23 190.92 238.19 191.004 238.219 191.08L238.251 191.132Z" fill="#9BDE9D"/>
    <path d="M237.203 195.416C237.322 195.416 237.436 195.384 237.536 195.319C237.853 195.112 237.933 194.64 237.75 194.054L237.337 192.106C237.321 192.03 237.25 191.982 237.172 191.998C237.096 192.014 237.048 192.089 237.064 192.163L237.481 194.125C237.654 194.679 237.544 194.982 237.384 195.085C237.22 195.191 236.972 195.131 236.746 194.934L236.544 194.939L236.545 195.127C236.763 195.319 236.994 195.416 237.203 195.416Z" fill="#9BDE9D"/>
    <path d="M269.76 241.633C269.494 242.388 268.84 242.901 268.114 243.099C267.258 243.332 266.301 243.139 265.701 242.438L265.192 241.837C264.926 241.526 264.774 241.142 264.751 240.737L264.469 235.341L267.413 234.539L269.736 240.3C269.906 240.722 269.916 241.193 269.76 241.633Z" fill="#F0412A"/>
    <path d="M263.072 228.984L268.839 228.851L269.354 228.993L269.87 225.987L269.331 225.994L239.87 220.931C239.727 220.906 239.591 220.891 239.452 220.89C239.108 220.877 238.43 220.883 237.68 221.032C235.138 221.534 234.357 224.688 236.332 226.367C237.702 227.534 239.471 228.308 241.534 228.809L241.541 228.81C247.322 230.212 255.363 229.438 263.072 228.984Z" fill="url(#paint15_linear)"/>
    <path d="M266.988 228.966L267.237 234.099L267.413 234.539L264.469 235.341L264.44 234.86L257.479 209.291C257.446 209.169 257.421 209.049 257.411 208.927C257.375 208.622 257.337 208.02 257.434 207.337C257.764 205.024 260.835 203.971 262.63 205.533C263.876 206.616 264.76 208.097 265.392 209.871L265.393 209.877C267.164 214.847 266.928 222.072 266.988 228.966Z" fill="url(#paint16_linear)"/>
    <path d="M245.66 209.497L243.537 211.943C243.355 212.154 243.377 212.472 243.587 212.654L247.927 216.447C248.145 216.638 248.477 216.607 248.656 216.379L250.513 214.013C250.674 213.808 250.652 213.514 250.464 213.335L246.389 209.462C246.181 209.263 245.848 209.279 245.66 209.497Z" fill="#9BDE9D"/>
    <path d="M244.536 212.371C244.536 212.593 244.715 212.772 244.937 212.772C245.158 212.772 245.338 212.593 245.338 212.371C245.338 212.15 245.158 211.97 244.937 211.97C244.715 211.97 244.536 212.15 244.536 212.371Z" fill="#E7F4ED"/>
    <path d="M258.769 203.997C258.092 206.317 256.197 211.406 251.887 214.743L250.711 210.927L253.392 206.871L245.328 203.662C243.631 202.985 242.776 201.09 243.392 199.374L244.253 196.986L257.982 202.247C258.639 202.554 258.974 203.3 258.769 203.997Z" fill="url(#paint17_linear)"/>
    <path d="M251.887 214.743C250.848 215.55 249.671 216.255 248.331 216.796C247.49 217.138 246.531 216.844 246.019 216.098C245.834 215.825 245.649 215.503 245.485 215.12L243.85 215.393C243.85 215.393 242.325 215.072 247.694 212.671L248.556 212L247.12 209.949C247.12 209.949 247.544 209.23 250.417 211.372L250.711 210.927L251.887 214.743Z" fill="#EE854C"/>
    <path d="M230.917 190.982L230.908 190.961L230.899 190.949L230.917 190.982Z" fill="#9BDE9D"/>
    <path d="M242.163 187.596C241.482 186.769 240.906 185.878 240.437 184.915C239.959 183.935 238.804 183.437 237.756 183.344C236.572 183.24 235.401 183.529 234.321 183.994C233.046 184.542 232.04 185.713 231.132 186.734C230.171 187.816 229.386 189.546 230.447 190.781C230.539 190.887 231.414 191.781 231.451 191.875C231.495 191.99 231.262 192.427 231.246 192.595C231.225 192.794 231.233 193.023 231.246 193.221C231.281 193.756 231.559 194.355 232.186 194.075C232.734 193.832 232.715 193.202 232.739 192.7C232.766 192.117 232.748 191.363 232.441 190.838C235.038 190.115 235.786 187.888 235.985 187.578C236.155 188.076 236.809 188.585 237.226 188.891C237.661 189.21 238.055 189.575 238.531 189.832C238.966 190.066 239.434 190.298 239.904 190.46C240.116 190.533 240.373 190.476 240.474 190.683C240.537 190.813 240.472 191.129 240.472 191.28C240.472 191.813 240.524 192.264 240.771 192.744C240.875 192.947 240.99 193.261 241.25 193.194C241.483 193.136 241.659 192.684 241.72 192.48C241.842 192.073 241.916 191.653 242.055 191.25C242.199 190.833 242.359 190.526 242.572 190.145C243.015 189.35 242.697 188.243 242.163 187.596Z" fill="#82F48A"/>
    <path d="M352.686 154.946C352.624 154.204 352.55 153.464 352.451 152.723C352.176 150.661 351.802 148.639 351.335 146.685C350.888 144.809 350.387 142.984 349.67 141.39C348.919 139.718 348.224 137.963 347.592 136.149C347.01 134.477 346.483 132.746 346.025 130.96C342.333 131.114 338.639 131.269 334.946 131.423C334.128 135.306 332.649 138.656 331.102 141.804C329.556 144.953 327.91 147.991 326.667 151.52C325.424 155.049 324.599 159.189 324.891 163.291C325.535 159.364 327.274 156.022 329.463 154.505C328.702 157.211 329.096 160.573 330.086 163.044C331.077 165.516 332.578 167.23 334.119 168.62C335.778 170.116 337.529 171.308 339.332 172.169C340.076 172.523 340.853 172.824 341.613 172.6C342.292 172.4 342.908 171.794 343.478 171.121C346.866 167.114 349.061 160.231 349.213 153.131C349.84 154.157 350.664 154.725 351.403 155.495C352.142 156.265 352.853 157.39 352.973 158.869C352.865 157.554 352.794 156.249 352.686 154.946Z" fill="#82F48A"/>
    <path d="M360.102 159.296L357.665 156.395C357.558 156.271 357.45 156.141 357.348 156.011C355.584 153.868 354.012 151.577 352.525 149.236C351.588 147.763 350.223 146.501 348.618 145.74C346.81 144.882 344.868 145.006 342.949 144.786C342.949 144.786 343.085 145.061 343.196 145.449C343.395 146.145 344.04 146.469 344.549 146.909C346.149 148.293 346.289 150.655 346.548 152.608C346.701 153.765 347.095 154.318 347.991 155.003C348.74 155.577 349.472 156.172 350.213 156.757C351.244 157.569 352.274 158.382 353.305 159.195L358.717 163.458C360.582 163.023 361.341 160.766 360.102 159.296Z" fill="url(#paint18_linear)"/>
    <path d="M336.523 145.201C333.085 145.265 330.311 146.241 328.406 149.236C326.896 151.611 325.307 153.924 323.509 156.095C323.43 156.197 323.351 156.293 323.266 156.395L320.829 159.296C319.59 160.766 320.348 163.023 322.214 163.458L327.185 159.539L334.073 154.11C334.188 153.482 334.304 152.854 334.42 152.227C334.626 151.106 337.58 152.45 338.092 151.421C338.567 150.467 336.686 147.254 337.14 146.287C337.355 145.858 337.542 145.408 337.709 144.936C337.639 145.135 337.066 145.191 336.523 145.201Z" fill="url(#paint19_linear)"/>
    <path d="M344.606 146.961C344.105 146.503 343.673 146.008 343.337 145.446V145.439C343.207 145.234 343.097 145.028 343.001 144.795C342.23 144.719 342.396 143.298 342.394 143.245C342.38 142.961 342.359 142.669 342.332 142.392L342.193 140.854L338.423 141.762C338.631 142.143 338.713 142.621 338.686 143.217C338.68 143.369 338.672 143.536 338.644 143.709V143.716C338.642 143.725 338.632 143.768 338.616 143.828C338.493 144.317 338.288 144.611 337.946 144.815C337.878 144.856 337.788 144.905 337.707 144.938C337.542 145.405 337.356 145.858 337.138 146.29C336.815 146.983 336.431 147.627 335.971 148.182C336.369 151.029 338.207 153.189 340.416 153.189C342.857 153.189 344.839 150.562 344.935 147.277C344.825 147.168 344.723 147.064 344.606 146.961Z" fill="#EA803F"/>
    <path d="M348.461 172.744L334.451 173.067C330.642 173.151 328.928 177.878 331.8 180.383L333.811 182.139L347.496 182.21C347.496 182.21 353.648 173.582 348.461 172.744Z" fill="url(#paint20_linear)"/>
    <path d="M347.105 133.901C346.85 133.879 346.561 133.972 346.276 134.141C345.902 132.427 344.999 130.602 343.886 129.347C343.42 128.724 342.884 128.317 342.3 128.074C341.984 127.92 341.664 127.816 341.344 127.788C341.124 127.769 340.908 127.761 340.694 127.764C340.48 127.761 340.262 127.769 340.042 127.788C339.723 127.816 339.403 127.92 339.087 128.074C338.503 128.318 337.967 128.724 337.5 129.347C336.388 130.602 335.485 132.427 335.111 134.141C334.826 133.972 334.536 133.879 334.282 133.901C333.428 133.974 333.149 135.327 333.384 136.353C333.682 137.653 334.663 138.061 335.574 138.319C335.991 139.18 336.58 140.022 337.262 140.727C337.974 141.567 338.894 142.189 339.943 142.444L340.036 142.465C340.096 142.479 340.155 142.498 340.217 142.509L340.343 142.521L340.449 142.531C340.53 142.538 340.611 142.543 340.694 142.543C340.775 142.543 340.857 142.538 340.938 142.531L341.043 142.521L341.169 142.509C341.231 142.498 341.291 142.479 341.351 142.465L341.444 142.444C342.493 142.189 343.413 141.566 344.126 140.726C344.807 140.022 345.396 139.18 345.813 138.319C346.723 138.061 347.705 137.653 348.003 136.353C348.238 135.327 347.959 133.974 347.105 133.901Z" fill="#EE854C"/>
    <path d="M341.105 139.705C341.704 139.517 342.358 139.079 342.634 138.084C342.657 138.003 342.609 137.918 342.527 137.895C342.446 137.872 342.361 137.919 342.338 138.002C341.843 139.778 340.015 139.526 339.937 139.515C339.853 139.501 339.775 139.56 339.762 139.645C339.75 139.728 339.807 139.806 339.891 139.819C339.902 139.821 340.473 139.902 341.105 139.705Z" fill="#9BDE9D"/>
    <path d="M343.728 134.686L343.744 134.68C343.822 134.647 343.857 134.556 343.824 134.478C343.418 133.548 342.577 133.581 342.186 133.724C342.107 133.754 342.067 133.843 342.096 133.922C342.125 134.002 342.205 134.043 342.294 134.013C342.321 134.002 343.152 133.709 343.541 134.601C343.572 134.674 343.654 134.709 343.728 134.686Z" fill="#9BDE9D"/>
    <path d="M339.085 134.09L339.094 134.075C339.133 134 339.103 133.906 339.027 133.868C338.123 133.407 337.494 133.966 337.283 134.325C337.241 134.399 337.266 134.492 337.339 134.535C337.413 134.578 337.501 134.56 337.549 134.48C337.564 134.454 338.019 133.7 338.887 134.143C338.957 134.179 339.043 134.155 339.085 134.09Z" fill="#9BDE9D"/>
    <path d="M340.004 138.282C339.35 138.172 339.253 137.875 339.241 137.807L339.264 137.692L340.145 136.378C340.192 136.306 340.285 136.287 340.357 136.335C340.427 136.383 340.446 136.478 340.399 136.548L339.571 137.785C339.636 137.853 339.834 137.992 340.399 138.012C340.493 138.013 340.549 138.087 340.547 138.171C340.543 138.256 340.472 138.322 340.387 138.319C340.242 138.313 340.115 138.3 340.004 138.282Z" fill="#9BDE9D"/>
    <path d="M338.093 136.013C338.113 136.3 338.345 136.517 338.612 136.499C338.88 136.481 339.082 136.234 339.062 135.947C339.043 135.661 338.81 135.444 338.543 135.462C338.275 135.48 338.074 135.727 338.093 136.013Z" fill="#9BDE9D"/>
    <path d="M341.957 136.013C341.977 136.3 342.209 136.517 342.476 136.499C342.744 136.481 342.946 136.234 342.926 135.947C342.907 135.661 342.674 135.444 342.406 135.462C342.139 135.48 341.938 135.727 341.957 136.013Z" fill="#9BDE9D"/>
    <path d="M349.167 172.748C343.776 178.667 337.308 178.392 330.005 173.311L334.75 165.623C334.95 165.17 335.087 164.697 335.163 164.21C335.23 163.813 335.251 163.408 335.223 162.996C335.19 162.358 335.046 161.735 334.798 161.124L334.614 160.678L333.365 157.694C332.968 156.728 332.769 155.699 332.769 154.663C332.769 153.8 332.913 152.928 333.207 152.078V152.071C333.482 151.269 333.873 150.507 334.435 149.87C334.702 149.575 334.97 149.28 335.244 148.992L335.251 148.985C335.361 148.868 335.457 148.759 335.567 148.649C335.711 148.498 335.848 148.347 335.971 148.182C336.369 151.029 338.207 153.189 340.416 153.189C342.857 153.189 344.839 150.562 344.935 147.277C345.018 147.353 345.1 147.435 345.182 147.517L345.189 147.531C346.197 148.546 347.061 149.684 347.747 150.926C347.843 151.228 347.952 151.522 348.083 151.79C349.167 153.978 348.419 156.858 347.267 159.101L346.073 161.432L345.093 163.366C345.052 163.455 345.024 163.545 345.004 163.641C344.928 163.956 344.901 164.327 344.901 164.704C344.901 164.936 344.901 165.17 344.915 165.411C344.949 165.815 345.093 166.219 345.313 166.569L349.167 172.748Z" fill="url(#paint21_linear)"/>
    <path d="M359.325 163.643L352.59 168.074L350.778 169.268L349.741 169.954L349.08 168.208C349.183 168.159 349.274 168.087 349.353 167.996L349.438 167.899L350.633 166.529C350.633 166.529 356.368 157.035 359.513 158.648C361.187 159.932 361.084 162.485 359.325 163.643Z" fill="#EE854C"/>
    <path d="M349.741 169.954L349.589 170.057C349.347 170.208 349.062 170.299 348.778 170.312L345.8 170.39C346.267 171.439 342.017 173.634 341.145 172.227C341.145 172.227 343.242 168.644 343.63 168.268L344.079 167.844C344.576 167.377 345.291 167.225 345.94 167.45L348.31 168.268C348.571 168.359 348.85 168.335 349.08 168.208L349.741 169.954Z" fill="#EE854C"/>
    <path d="M321.606 163.643L328.34 168.074L330.153 169.268L331.19 169.954L331.85 168.208C331.747 168.159 331.657 168.087 331.577 167.996L331.493 167.899L330.298 166.529C330.298 166.529 324.564 157.035 321.417 158.648C319.744 159.932 319.847 162.485 321.606 163.643Z" fill="#EE854C"/>
    <path d="M331.19 169.954L331.341 170.057C331.584 170.208 331.869 170.299 332.154 170.312L335.131 170.39C334.663 171.439 338.913 173.634 339.786 172.227C339.786 172.227 337.689 168.644 337.3 168.268L336.852 167.844C336.355 167.377 335.639 167.225 334.991 167.45L332.621 168.268C332.36 168.359 332.081 168.335 331.85 168.208L331.19 169.954Z" fill="#EE854C"/>
    <path d="M350.413 163.006H329.129C328.444 163.006 327.919 163.614 328.02 164.292L329.66 175.324C329.254 175.423 328.95 175.789 328.95 176.224C328.95 176.735 329.368 177.154 329.878 177.154H349.529C350.041 177.154 350.459 176.735 350.459 176.224C350.459 175.726 350.06 175.319 349.567 175.299L351.517 164.322C351.639 163.636 351.111 163.006 350.413 163.006Z" fill="url(#paint22_linear)"/>
    <path d="M341.576 169.045C342.1 169.569 342.1 170.418 341.576 170.941C341.053 171.464 340.204 171.464 339.68 170.941C339.158 170.418 339.158 169.569 339.68 169.045C340.204 168.522 341.053 168.522 341.576 169.045Z" fill="#E7F4ED"/>
    <path d="M349.633 204.272L347.669 205.876L347.661 205.847C345.569 203.137 340.347 195.731 338.155 192.993C332.764 186.232 329.536 181.394 329.678 176.165C329.706 175.243 330.103 174.413 330.727 173.817C331.352 173.221 332.211 172.852 333.132 172.852C335.154 172.852 336.971 174.059 337.751 175.917L342.589 189.708L349.633 204.272Z" fill="url(#paint23_linear)"/>
    <path d="M354.311 211.431C353.473 208.387 352.424 207.025 349.756 204.748L349.749 204.741C349.572 204.592 349.387 204.436 349.196 204.279L349.175 204.294L349.167 204.272L347.202 205.876C347.301 206.245 347.415 206.592 347.528 206.926C348.599 209.962 350.252 211.616 351.494 212.906C352.835 214.289 354.821 213.282 354.311 211.431Z" fill="#F0412A"/>
    <path d="M351.081 176.165C351.223 181.394 347.995 186.232 342.603 192.993C340.411 195.731 335.19 203.137 333.097 205.847L333.09 205.876L331.083 204.294L331.104 204.279L331.118 204.294L338.169 189.708L343.008 175.917C343.788 174.059 345.604 172.852 347.626 172.852C348.555 172.852 349.407 173.221 350.03 173.817C350.655 174.413 351.053 175.243 351.081 176.165Z" fill="url(#paint24_linear)"/>
    <path d="M331.083 204.294C330.734 204.585 330.408 204.861 330.11 205.117C327.755 207.181 326.776 208.558 325.989 211.431C325.471 213.282 327.457 214.289 328.798 212.906C327.929 213.801 332.352 207.997 332.601 207.352C332.778 206.898 332.941 206.401 333.09 205.876L331.083 204.294Z" fill="#F0412A"/>
    <path d="M345.555 129.403C345.116 128.547 344.472 127.821 343.563 127.36C342.129 126.634 340.328 126.716 338.817 127.15C337.261 127.597 335.934 128.741 335.245 130.218C334.472 131.878 334.626 133.823 335.274 135.499C335.305 135.579 335.336 135.659 335.37 135.737C335.583 136.239 335.998 136.963 336.509 137.204C336.581 136.051 336.573 134.964 337.08 133.891C337.375 133.265 337.666 132.675 338.1 132.13C338.316 131.86 338.556 131.608 338.772 131.34C338.922 131.155 339.03 130.874 339.265 130.797C339.086 131.515 338.928 132.107 338.997 132.859C339.071 133.653 339.766 134.263 339.829 135.049C339.944 134.639 340.359 134.211 340.623 133.877C341.005 133.395 341.514 133.034 342.048 132.729C342.379 132.54 342.701 132.349 343.01 132.146C343.162 132.611 343.318 133.074 343.531 133.525C343.816 134.128 344.269 134.557 344.581 135.12C344.802 135.519 345.063 135.948 345.186 136.389C345.273 136.697 345.251 137.032 345.318 137.329C346.052 136.412 346.27 135.032 346.34 133.902C346.432 132.432 346.248 130.755 345.555 129.403Z" fill="#82F48A"/>
    <path d="M344.049 134.126C344.182 134.333 344.341 134.522 344.489 134.726C344.748 135.08 344.742 135.34 344.769 135.767C344.831 136.751 344.843 137.758 344.583 138.715C344.393 139.414 344.095 140.084 343.941 140.793C343.723 141.799 343.411 142.693 343.05 143.659C342.333 145.58 341.316 147.75 342.042 149.803C342.292 150.511 342.599 151.085 343.056 151.675C343.327 152.025 343.707 152.191 344.061 152.449C343.594 151.945 344.005 150.772 344.182 150.243C344.359 149.715 344.633 149.261 344.913 148.783C345.32 148.086 345.601 147.323 345.878 146.566C346.419 145.088 346.843 143.404 346.957 141.833C347.004 141.168 347.065 140.493 347.063 139.826C347.061 138.952 346.868 138.142 346.669 137.3C346.446 136.358 346.53 135.744 346.351 132.705" fill="#82F48A"/>
    <path d="M336.986 133.132C336.853 133.341 336.574 135.34 336.548 135.767C336.485 136.751 336.474 137.758 336.733 138.715C336.924 139.414 337.22 140.084 337.375 140.793C337.592 141.799 337.905 142.693 338.267 143.659C338.984 145.58 340 147.75 339.274 149.803C339.024 150.511 338.717 151.085 338.26 151.675C337.989 152.025 337.609 152.191 337.255 152.449C337.722 151.945 337.311 150.772 337.134 150.243C336.956 149.715 336.683 149.261 336.403 148.783C335.995 148.086 335.716 147.323 335.437 146.566C334.897 145.088 334.473 143.404 334.36 141.833C334.312 141.168 334.252 140.493 334.253 139.826C334.256 138.952 334.448 138.142 334.647 137.3C334.871 136.358 334.787 135.744 334.966 132.705" fill="#82F48A"/>
    <path d="M347.958 100.625C347.16 102.54 345.098 103.468 341.984 103.532C341.175 103.557 340.365 103.509 339.567 103.403C337.399 103.113 335.306 102.374 333.404 101.281L320.635 93.9538L319.258 93.1618C318.159 92.5297 316.918 92.2107 315.695 92.2107C314.377 92.2107 313.047 92.577 311.883 93.3101C309.348 94.905 308.066 97.9009 308.675 100.844L309.543 105.016L309.531 105.098L300.857 116.142C300.331 115.971 299.521 115.711 298.552 115.41L309.289 88.6178C311.393 83.3942 317.166 80.4635 322.49 82.3012L330.048 85.1552L330.054 85.161L341.222 89.0141C344.969 90.2963 347.787 93.546 348.266 97.4701C348.419 98.7287 348.307 99.7686 347.958 100.625Z" fill="url(#paint25_linear)"/>
    <path d="M339.579 103.409L319.565 103.03L317.887 133.456C317.202 133.634 316.41 133.834 315.565 134.047L309.543 105.016L308.675 100.844C308.066 97.9009 309.348 94.9049 311.883 93.3101C313.047 92.5769 314.377 92.2107 315.695 92.2107C316.918 92.2107 318.159 92.5296 319.258 93.1618L320.635 93.9538L339.567 103.402L339.579 103.409Z" fill="url(#paint26_linear)"/>
    <path d="M347.959 100.626H347.952C348.31 99.7724 348.418 98.7266 348.265 97.4712C347.788 93.5453 344.964 90.2949 341.222 89.0076L335.948 87.1877C341.052 80.8021 343.093 74.4874 339.981 62.303L344.212 59.9015C358.634 77.81 357.156 90.486 347.959 100.626Z" fill="url(#paint27_linear)"/>
    <path d="M347.959 100.626H347.952C348.31 99.7724 348.418 98.7266 348.265 97.4712C347.788 93.5453 344.964 90.2949 341.222 89.0076L335.948 87.1877C341.052 80.8021 343.093 74.4874 339.981 62.303L344.212 59.9015C358.634 77.81 357.156 90.486 347.959 100.626Z" fill="url(#paint28_linear)"/>
    <path d="M325 80.617C325.08 80.4386 325.797 77.8786 325.797 77.8786L348.03 81.1449L342.743 71.0436C341.771 69.1868 341.088 67.1483 341.077 65.053C341.064 62.3415 342.561 60.2155 345.6 61.2798C348.392 62.2565 350.609 64.4292 351.829 67.1234C358.153 81.1104 357.678 89.2494 347.528 89.4271C344.625 89.4782 341.769 88.6933 339.216 87.3113L325 80.617Z" fill="url(#paint29_linear)"/>
    <path d="M326.099 78.014L325.302 80.7523L318.757 78.0696C319.781 75.4738 322.432 75.4815 326.099 78.014Z" fill="#F8A2AA"/>
    <path d="M328.152 84.4982L312.619 78.4737C312.619 78.4737 310.19 60.8055 310.371 60.8055C311.69 60.8055 312.814 61.7662 313.018 63.0702L315.136 76.5855L326.814 81.3718C328.039 81.8742 328.634 83.2658 328.152 84.4982Z" fill="#DAE3EA"/>
    <path d="M344.212 59.9015L341.713 55.9199L337.889 57.5665C339.092 59.1396 339.981 62.303 339.981 62.303L344.212 59.9015Z" fill="#EA803F"/>
    <path d="M341.95 50.433C341.352 49.1604 340.446 48.0245 339.393 47.0619C338.439 46.1893 337.09 45.2369 335.72 45.4351C334.961 45.545 334.207 45.7777 333.583 46.2366C332.883 46.7512 332.426 47.508 332.166 48.3268C331.766 49.5816 331.758 50.9463 331.85 52.2483C331.884 52.7213 331.935 53.1931 331.998 53.6629C332.066 54.1679 332.182 54.7061 332.103 55.2245C332.069 55.4501 332.041 55.6777 332.022 55.9046C332.009 56.0484 331.969 56.2465 332.02 56.3865C332.106 56.6192 332.464 56.6192 332.726 56.5988L332.786 56.5757C333.807 58.5477 335.819 60.0147 337.958 59.8945C339.303 59.8191 340.376 58.7305 341.084 57.6777C342.52 55.5447 343.084 52.8473 341.95 50.433Z" fill="#EE854C"/>
    <path d="M334.942 56.6397C335.31 56.2063 335.598 55.5556 335.329 54.6613C335.306 54.5878 335.229 54.5463 335.156 54.568C335.083 54.5891 335.04 54.6671 335.062 54.7412C335.543 56.3392 334.024 57.0296 333.958 57.059C333.887 57.0897 333.856 57.1721 333.887 57.2431C333.917 57.3127 333.999 57.3447 334.07 57.314C334.079 57.3102 334.555 57.0954 334.942 56.6397Z" fill="#9BDE9D"/>
    <path d="M333.823 53.9698C333.903 54.2434 333.748 54.5291 333.476 54.6084C333.205 54.6876 332.92 54.5304 332.84 54.2568C332.76 53.9839 332.915 53.6975 333.187 53.6182C333.458 53.539 333.744 53.6962 333.823 53.9698Z" fill="#9BDE9D"/>
    <path d="M334.14 52.3999L334.152 52.3903L334.156 52.1934C333.521 51.5299 332.819 51.8208 332.531 52.0643C332.473 52.1142 332.466 52.2017 332.516 52.2599C332.566 52.3187 332.647 52.3296 332.713 52.2753C332.732 52.2586 333.346 51.7498 333.954 52.3858L334.14 52.3999Z" fill="#9BDE9D"/>
    <path d="M310.205 140.411C309.201 140.749 308.136 139.956 309.644 138.828L315.583 134.112L315.565 134.047C316.41 133.834 317.202 133.634 317.887 133.456L317.881 133.545C320.564 136.729 317.379 137.905 310.205 140.411Z" fill="#F0412A"/>
    <path d="M300.768 116.255C301.247 120.391 297.937 119.617 290.569 117.738C289.547 117.466 289.104 116.208 290.983 116.107L298.529 115.457L298.552 115.41C299.521 115.711 300.331 115.971 300.857 116.143L300.768 116.255Z" fill="#F0412A"/>
    <path d="M344.148 51.1783C344.124 50.4662 343.801 50.1108 343.399 49.5675C343.832 48.9948 343.766 48.0385 343.492 47.4083C343.293 46.95 342.669 46.2577 342.122 46.3057C342.021 45.5201 341.255 44.5626 340.612 44.1573C340.343 43.9879 339.261 43.5782 339.36 44.2564C338.767 43.4158 335.996 42.7683 335.679 43.9771C334.961 43.7955 334.21 44.0199 333.542 44.2781C333.216 44.404 332.771 44.5242 332.606 44.87C332.458 45.1781 332.702 45.1334 332.364 45.2932C332.158 45.391 331.821 45.4121 331.593 45.5067C331.242 45.6524 330.876 45.8013 330.608 46.0781C330.226 46.4719 329.742 47.462 329.805 48.043C329.805 48.043 329.049 48.8925 329.88 49.8935C330.227 50.3122 330.187 50.7251 330.65 51.0901C331.165 51.4941 331.927 51.6545 332.546 51.3797C333.06 51.1515 333.094 50.9086 333.653 50.9111C334.23 50.9137 334.749 50.874 335.294 50.6663C335.737 50.4982 335.928 50.1779 336.314 49.96C336.592 50.6931 336.742 51.294 337.502 51.6027C337.359 52.1614 337.14 52.6318 337.452 53.2052C337.806 53.8598 338.173 53.8789 338.737 54.04C338.479 53.8796 338.453 53.3874 338.529 53.1183C338.654 52.674 339.069 52.3154 339.498 52.3621C342.187 52.6549 340.889 55.8266 340.889 55.8266C341.065 56.8001 342.345 56.6377 342.898 56.2734C343.681 55.7569 344.035 54.3782 343.481 53.5459C344.102 52.9252 344.176 52.0227 344.148 51.1783Z" fill="#F0412A"/>
    <path d="M120.667 16.4505L125.208 24.7212C122.938 28.9463 119.632 32.2311 115.352 34.6109C112.027 36.4767 108.11 37.7999 103.625 38.6021L103.495 38.6232L98.0153 28.13L98.0702 28.0546C100.333 24.865 102.898 22.3414 105.765 20.4762C110.065 17.6644 115.044 16.3406 120.667 16.4505Z" fill="url(#paint30_linear)"/>
    <path d="M127.649 18.4666C127.046 20.7434 126.236 22.8285 125.208 24.7212L120.667 16.4505C121.895 16.471 123.15 16.5599 124.44 16.7177C125.111 16.8143 125.893 16.9306 126.792 17.0744C126.922 17.0949 127.046 17.1434 127.156 17.2118L127.313 17.3282C127.622 17.603 127.759 18.0415 127.649 18.4666Z" fill="url(#paint31_linear)"/>
    <path d="M115.356 34.6127C110.833 38.8474 106.324 42.363 101.815 44.3618L103.622 38.602C108.11 37.8004 112.026 36.4766 115.356 34.6127Z" fill="url(#paint32_linear)"/>
    <path d="M105.762 20.4788C102.899 22.3453 100.336 24.8669 98.069 28.0559L90.9451 25.8219C94.9446 23.3942 100.075 21.7399 105.762 20.4788Z" fill="url(#paint33_linear)"/>
    <path d="M95.5077 36.1174L98.2672 31.4442L111.931 26.2194L101.107 36.0542L95.5077 36.1174Z" fill="url(#paint34_linear)"/>
    <path d="M114.331 22.0333C113.716 23.995 114.807 26.0846 116.77 26.6995C118.731 27.3151 120.82 26.2233 121.436 24.2616C122.051 22.3005 120.959 20.211 118.997 19.5954C117.036 18.9805 114.947 20.0723 114.331 22.0333Z" fill="#DAE3EA"/>
    <path d="M94.6007 35.4143C94.5086 35.3888 94.4428 35.3855 94.3897 35.3849C94.2721 35.3868 94.2082 35.4041 94.1443 35.4188C93.9384 35.4757 93.7505 35.5626 93.482 35.6943C93.2187 35.826 92.8991 36.0005 92.5258 36.2197C92.1992 36.4121 92.0905 36.8321 92.2823 37.1587C92.474 37.4853 92.8946 37.5946 93.2213 37.4022C93.6227 37.1664 93.9531 36.988 94.1865 36.8762C94.3021 36.8206 94.3948 36.7803 94.4492 36.7605L94.4914 36.7464L94.3897 36.3584V36.7566C94.4715 36.7554 94.4875 36.7458 94.4914 36.7464L94.3897 36.3584V36.7566V36.1417L94.2191 36.7317C94.3002 36.7547 94.3526 36.756 94.3897 36.7566V36.1417L94.2191 36.7317C94.5828 36.8372 94.9631 36.6275 95.0686 36.2638C95.174 35.9001 94.9644 35.5198 94.6007 35.4143Z" fill="#82F48A"/>
    <path d="M89.4839 38.2344C88.5966 38.8787 87.6283 39.6272 86.6196 40.4761C86.33 40.7196 86.2923 41.1523 86.5365 41.4425C86.78 41.7321 87.2128 41.7698 87.5023 41.5256C88.4848 40.6998 89.4282 39.9698 90.2893 39.344C90.5961 39.1216 90.6638 38.6927 90.4414 38.3865C90.2189 38.0797 89.79 38.0119 89.4839 38.2344ZM83.9209 42.9133C83.0784 43.7309 82.2334 44.6092 81.4063 45.5456C81.1557 45.8294 81.1825 46.2628 81.467 46.5133C81.7508 46.7639 82.1842 46.7371 82.4347 46.4533C83.2357 45.5456 84.057 44.6929 84.8758 43.8977C85.1481 43.6337 85.1545 43.1997 84.8905 42.928C84.6272 42.6564 84.1925 42.65 83.9209 42.9133ZM79.1115 48.3785C78.3969 49.3463 77.7161 50.3613 77.0872 51.4211C76.8941 51.7471 77.0015 52.1677 77.3269 52.3608C77.6529 52.5538 78.0735 52.4464 78.2671 52.1211C78.8705 51.1041 79.5257 50.1274 80.2154 49.1935C80.4404 48.8886 80.3759 48.4597 80.071 48.2347C79.7661 48.0097 79.3372 48.0743 79.1115 48.3785ZM75.4003 54.6715C74.9062 55.7818 74.4773 56.9317 74.1296 58.1193C74.0228 58.483 74.2318 58.864 74.5949 58.9701C74.9586 59.0762 75.3396 58.8679 75.4457 58.5048C75.7749 57.3798 76.1827 56.2874 76.6538 55.2295C76.8078 54.8837 76.6519 54.4784 76.3061 54.3244C75.9603 54.1703 75.5544 54.3257 75.4003 54.6715ZM73.3581 61.7212C73.2187 62.7472 73.1439 63.7961 73.1446 64.8661C73.1439 65.0451 73.1465 65.2241 73.1503 65.4043C73.1593 65.7827 73.4731 66.0825 73.8522 66.0736C74.2306 66.0653 74.5304 65.7508 74.522 65.3724C74.5176 65.203 74.5157 65.0342 74.5157 64.8661C74.5157 63.86 74.586 62.8725 74.717 61.906C74.7681 61.5308 74.5054 61.185 74.1302 61.1338C73.755 61.0827 73.4092 61.3454 73.3581 61.7212ZM73.5274 69.0733C73.7409 70.2424 74.0478 71.4314 74.4562 72.6363C74.5777 72.9949 74.9676 73.1873 75.3262 73.0652C75.6848 72.9437 75.8772 72.5545 75.7551 72.1959C75.3677 71.053 75.0782 69.9299 74.8768 68.8273C74.809 68.4546 74.4517 68.2079 74.0791 68.2756C73.7064 68.344 73.4597 68.7007 73.5274 69.0733ZM75.8625 76.0272C76.3789 77.0794 76.9753 78.1417 77.658 79.2143C77.8612 79.5339 78.285 79.6285 78.6046 79.4252C78.9242 79.2213 79.0182 78.7975 78.8149 78.4779C78.1585 77.4463 77.587 76.4274 77.0936 75.4225C76.9267 75.0825 76.5157 74.9425 76.1757 75.1093C75.8356 75.2762 75.6956 75.6872 75.8625 76.0272ZM79.7603 82.1943C80.4749 83.116 81.2548 84.0435 82.103 84.9767C82.358 85.2573 82.7914 85.2778 83.072 85.0234C83.352 84.7683 83.3731 84.335 83.118 84.0543C82.2928 83.146 81.536 82.2454 80.8444 81.3537C80.6124 81.0546 80.1815 81.0002 79.8824 81.2323C79.5826 81.4643 79.5283 81.8951 79.7603 82.1943ZM84.633 87.5789C85.4716 88.3888 86.3639 89.2018 87.3106 90.0194C87.5969 90.2668 88.0303 90.2348 88.2777 89.9484C88.5251 89.6614 88.4931 89.2281 88.2067 88.9807C87.278 88.1798 86.4055 87.3833 85.5854 86.592C85.3131 86.3293 84.879 86.3369 84.6157 86.6092C84.353 86.8815 84.3607 87.3162 84.633 87.5789Z" fill="#82F48A"/>
    <path d="M90.1282 92.3327C90.575 92.6829 91.0327 93.0339 91.5005 93.3848C91.8035 93.6117 92.2337 93.5503 92.4606 93.2474C92.6882 92.9444 92.6268 92.5148 92.3238 92.2873C91.863 91.9421 91.413 91.5969 90.9738 91.253C90.6753 91.0197 90.2445 91.0721 90.0106 91.37C89.7773 91.6685 89.8297 92.0993 90.1282 92.3327Z" fill="#82F48A"/>
    <path d="M214.018 90.8454C216.291 95.068 219.592 98.3509 223.87 100.734C227.201 102.597 231.116 103.921 235.605 104.722L235.73 104.745L241.213 94.2523L241.158 94.1763C238.89 90.9873 236.328 88.4656 233.465 86.5992C229.164 83.7867 224.186 82.4591 218.561 82.5696C216.6 82.6042 214.557 82.8144 212.437 83.198C211.799 83.3111 211.416 83.9618 211.58 84.5838C212.183 86.8657 212.994 88.9514 214.018 90.8454Z" fill="url(#paint35_linear)"/>
    <path d="M223.87 100.734C228.394 104.969 232.903 108.483 237.411 110.483L235.605 104.722C231.116 103.921 227.201 102.597 223.87 100.734Z" fill="url(#paint36_linear)"/>
    <path d="M233.465 86.5992C236.328 88.4656 238.89 90.9873 241.158 94.1763L248.282 91.9423C244.281 89.5152 239.152 87.8603 233.465 86.5992Z" fill="url(#paint37_linear)"/>
    <path d="M243.718 102.238L240.96 97.5647L227.295 92.3399L238.12 102.175L243.718 102.238Z" fill="url(#paint38_linear)"/>
    <path d="M224.896 88.1543C225.511 90.116 224.42 92.2049 222.457 92.8205C220.495 93.436 218.407 92.3443 217.792 90.3826C217.176 88.4202 218.268 86.3313 220.23 85.7164C222.191 85.1008 224.28 86.1926 224.896 88.1543Z" fill="#DAE3EA"/>
    <path d="M214.018 90.8453L218.561 82.5696C218.26 82.3823 216.685 82.5306 212.437 83.1979C211.797 83.2989 211.416 83.9618 211.58 84.5837C212.183 86.8657 212.994 88.9514 214.018 90.8453Z" fill="url(#paint39_linear)"/>
    <path d="M245.01 102.852L244.837 102.261V102.877C244.875 102.877 244.928 102.875 245.01 102.852L244.837 102.261V102.877V102.477L244.735 102.867C244.739 102.866 244.754 102.876 244.837 102.877V102.477L244.735 102.867C244.74 102.865 244.912 102.93 245.132 103.042C245.357 103.154 245.654 103.316 246.006 103.523C246.333 103.715 246.753 103.606 246.944 103.279C247.137 102.952 247.027 102.532 246.701 102.34C246.274 102.089 245.917 101.897 245.635 101.761C245.493 101.693 245.371 101.639 245.257 101.596C245.199 101.575 245.144 101.556 245.082 101.54C245.018 101.524 244.955 101.507 244.837 101.506C244.783 101.506 244.716 101.509 244.624 101.536C244.261 101.642 244.053 102.023 244.159 102.387C244.265 102.75 244.646 102.958 245.01 102.852Z" fill="#82F48A"/>
    <path d="M248.937 105.465C249.799 106.09 250.742 106.82 251.724 107.646C252.014 107.89 252.447 107.853 252.691 107.563C252.934 107.273 252.897 106.841 252.607 106.597C251.598 105.748 250.63 104.999 249.743 104.355C249.437 104.132 249.008 104.2 248.785 104.507C248.563 104.813 248.631 105.242 248.937 105.465ZM254.351 110.018C255.17 110.813 255.991 111.666 256.792 112.574C257.043 112.858 257.476 112.884 257.76 112.634C258.044 112.383 258.071 111.95 257.82 111.666C256.994 110.73 256.148 109.851 255.306 109.034C255.034 108.77 254.6 108.777 254.336 109.049C254.072 109.32 254.079 109.754 254.351 110.018ZM259.012 115.314C259.701 116.248 260.356 117.225 260.96 118.242C261.153 118.568 261.574 118.674 261.9 118.481C262.225 118.288 262.333 117.867 262.14 117.542C261.511 116.482 260.83 115.467 260.115 114.499C259.89 114.195 259.461 114.13 259.156 114.355C258.851 114.58 258.786 115.01 259.012 115.314ZM262.573 121.35C263.044 122.408 263.452 123.501 263.781 124.625C263.887 124.988 264.268 125.197 264.632 125.091C264.995 124.984 265.204 124.604 265.097 124.24C264.749 123.052 264.32 121.902 263.826 120.792C263.672 120.446 263.266 120.291 262.921 120.445C262.575 120.599 262.419 121.004 262.573 121.35ZM264.51 128.026C264.641 128.994 264.711 129.981 264.711 130.987C264.711 131.155 264.709 131.323 264.705 131.493C264.696 131.871 264.996 132.186 265.375 132.194C265.754 132.203 266.067 131.903 266.076 131.525C266.08 131.345 266.083 131.166 266.083 130.987C266.083 129.917 266.008 128.868 265.869 127.842C265.817 127.466 265.472 127.203 265.096 127.254C264.721 127.305 264.459 127.651 264.51 128.026ZM264.35 134.948C264.149 136.05 263.859 137.173 263.472 138.316C263.35 138.675 263.542 139.064 263.901 139.186C264.26 139.308 264.649 139.115 264.77 138.757C265.179 137.552 265.486 136.363 265.699 135.194C265.767 134.821 265.52 134.465 265.148 134.396C264.775 134.328 264.418 134.575 264.35 134.948ZM262.133 141.543C261.64 142.548 261.068 143.567 260.412 144.598C260.208 144.918 260.302 145.342 260.622 145.546C260.942 145.749 261.365 145.654 261.569 145.335C262.251 144.262 262.848 143.2 263.364 142.148C263.532 141.808 263.391 141.397 263.051 141.23C262.711 141.063 262.3 141.203 262.133 141.543ZM258.382 147.474C257.691 148.366 256.934 149.267 256.109 150.175C255.854 150.455 255.875 150.889 256.155 151.144C256.435 151.398 256.869 151.378 257.124 151.097C257.972 150.164 258.752 149.236 259.466 148.315C259.698 148.016 259.644 147.585 259.345 147.353C259.045 147.121 258.614 147.175 258.382 147.474ZM253.641 152.712C252.821 153.504 251.949 154.3 251.02 155.101C250.734 155.349 250.702 155.782 250.949 156.069C251.196 156.355 251.63 156.387 251.916 156.14C252.863 155.322 253.755 154.509 254.594 153.699C254.866 153.437 254.874 153.002 254.611 152.73C254.348 152.457 253.914 152.449 253.641 152.712Z" fill="#82F48A"/>
    <path d="M248.253 157.373C247.814 157.718 247.364 158.063 246.903 158.408C246.6 158.635 246.538 159.065 246.766 159.368C246.993 159.671 247.423 159.733 247.726 159.505C248.194 159.154 248.652 158.804 249.099 158.454C249.397 158.22 249.449 157.789 249.216 157.491C248.982 157.193 248.551 157.14 248.253 157.373Z" fill="#82F48A"/>
    <defs>
        <linearGradient id="paint0_linear" x1="78.6852" y1="174.497" x2="70.9176" y2="205.775" gradientUnits="userSpaceOnUse">
            <stop stop-color="#F0412A"/>
            <stop offset="1" stop-color="#F35D4D"/>
        </linearGradient>
        <linearGradient id="paint1_linear" x1="85.1002" y1="176.089" x2="77.3326" y2="207.368" gradientUnits="userSpaceOnUse">
            <stop stop-color="#F0412A"/>
            <stop offset="1" stop-color="#F35D4D"/>
        </linearGradient>
        <linearGradient id="paint2_linear" x1="80.7102" y1="162.019" x2="79.4437" y2="131.229" gradientUnits="userSpaceOnUse">
            <stop stop-color="#1D1F43"/>
            <stop offset="0.983794" stop-color="#4656AF"/>
            <stop offset="1" stop-color="#4656AF"/>
        </linearGradient>
        <linearGradient id="paint3_linear" x1="90.4574" y1="161.618" x2="89.1909" y2="130.828" gradientUnits="userSpaceOnUse">
            <stop stop-color="#1D1F43"/>
            <stop offset="0.983794" stop-color="#4656AF"/>
            <stop offset="1" stop-color="#4656AF"/>
        </linearGradient>
        <linearGradient id="paint4_linear" x1="70.0988" y1="162.456" x2="68.8323" y2="131.666" gradientUnits="userSpaceOnUse">
            <stop stop-color="#1D1F43"/>
            <stop offset="0.983794" stop-color="#4656AF"/>
            <stop offset="1" stop-color="#4656AF"/>
        </linearGradient>
        <linearGradient id="paint5_linear" x1="133.449" y1="87.9369" x2="133.449" y2="60.251" gradientUnits="userSpaceOnUse">
            <stop stop-color="#F0412A"/>
            <stop offset="1" stop-color="#F35D4D"/>
        </linearGradient>
        <linearGradient id="paint6_linear" x1="110.248" y1="87.9369" x2="110.248" y2="60.251" gradientUnits="userSpaceOnUse">
            <stop stop-color="#F0412A"/>
            <stop offset="1" stop-color="#F35D4D"/>
        </linearGradient>
        <linearGradient id="paint7_linear" x1="105.915" y1="98.4965" x2="136.912" y2="98.4965" gradientUnits="userSpaceOnUse">
            <stop stop-color="#1D1F43"/>
            <stop offset="0.983794" stop-color="#4656AF"/>
            <stop offset="1" stop-color="#4656AF"/>
        </linearGradient>
        <linearGradient id="paint8_linear" x1="129.248" y1="92.2113" x2="129.095" y2="109.052" gradientUnits="userSpaceOnUse">
            <stop stop-color="#1D1F43"/>
            <stop offset="0.983794" stop-color="#4656AF"/>
            <stop offset="1" stop-color="#4656AF"/>
        </linearGradient>
        <linearGradient id="paint9_linear" x1="112.539" y1="92.0797" x2="112.387" y2="108.775" gradientUnits="userSpaceOnUse">
            <stop stop-color="#1D1F43"/>
            <stop offset="0.983794" stop-color="#4656AF"/>
            <stop offset="1" stop-color="#4656AF"/>
        </linearGradient>
        <linearGradient id="paint10_linear" x1="120.86" y1="87.937" x2="120.86" y2="60.2511" gradientUnits="userSpaceOnUse">
            <stop stop-color="#F0412A"/>
            <stop offset="1" stop-color="#F35D4D"/>
        </linearGradient>
        <linearGradient id="paint11_linear" x1="121.477" y1="89.8789" x2="121.477" y2="81.9715" gradientUnits="userSpaceOnUse">
            <stop stop-color="#C2C3C1"/>
            <stop offset="1" stop-color="white"/>
        </linearGradient>
        <linearGradient id="paint12_linear" x1="225.167" y1="220.984" x2="221.942" y2="193.125" gradientUnits="userSpaceOnUse">
            <stop stop-color="#F0412A"/>
            <stop offset="1" stop-color="#F35D4D"/>
        </linearGradient>
        <linearGradient id="paint13_linear" x1="247.925" y1="217.473" x2="274.005" y2="217.473" gradientUnits="userSpaceOnUse">
            <stop stop-color="#1D1F43"/>
            <stop offset="0.983794" stop-color="#4656AF"/>
            <stop offset="1" stop-color="#4656AF"/>
        </linearGradient>
        <linearGradient id="paint14_linear" x1="239.368" y1="219.34" x2="236.143" y2="191.481" gradientUnits="userSpaceOnUse">
            <stop stop-color="#F0412A"/>
            <stop offset="1" stop-color="#F35D4D"/>
        </linearGradient>
        <linearGradient id="paint15_linear" x1="272.309" y1="229.655" x2="229.311" y2="223.205" gradientUnits="userSpaceOnUse">
            <stop stop-color="#1D1F43"/>
            <stop offset="0.983794" stop-color="#4656AF"/>
            <stop offset="1" stop-color="#4656AF"/>
        </linearGradient>
        <linearGradient id="paint16_linear" x1="267.054" y1="243.101" x2="260.648" y2="203.814" gradientUnits="userSpaceOnUse">
            <stop stop-color="#1D1F43"/>
            <stop offset="0.983794" stop-color="#4656AF"/>
            <stop offset="1" stop-color="#4656AF"/>
        </linearGradient>
        <linearGradient id="paint17_linear" x1="252.826" y1="217.782" x2="249.601" y2="189.923" gradientUnits="userSpaceOnUse">
            <stop stop-color="#F0412A"/>
            <stop offset="1" stop-color="#F35D4D"/>
        </linearGradient>
        <linearGradient id="paint18_linear" x1="351.829" y1="164.937" x2="351.829" y2="146.846" gradientUnits="userSpaceOnUse">
            <stop stop-color="#F0412A"/>
            <stop offset="1" stop-color="#F35D4D"/>
        </linearGradient>
        <linearGradient id="paint19_linear" x1="329.196" y1="164.937" x2="329.196" y2="146.846" gradientUnits="userSpaceOnUse">
            <stop stop-color="#F0412A"/>
            <stop offset="1" stop-color="#F35D4D"/>
        </linearGradient>
        <linearGradient id="paint20_linear" x1="330.363" y1="177.477" x2="350.54" y2="177.477" gradientUnits="userSpaceOnUse">
            <stop stop-color="#1D1F43"/>
            <stop offset="0.983794" stop-color="#4656AF"/>
            <stop offset="1" stop-color="#4656AF"/>
        </linearGradient>
        <linearGradient id="paint21_linear" x1="339.586" y1="164.937" x2="339.586" y2="146.846" gradientUnits="userSpaceOnUse">
            <stop stop-color="#F0412A"/>
            <stop offset="1" stop-color="#F35D4D"/>
        </linearGradient>
        <linearGradient id="paint22_linear" x1="339.771" y1="176.573" x2="339.771" y2="156.14" gradientUnits="userSpaceOnUse">
            <stop stop-color="#C2C3C1"/>
            <stop offset="1" stop-color="white"/>
        </linearGradient>
        <linearGradient id="paint23_linear" x1="348.131" y1="207.483" x2="333.346" y2="176.99" gradientUnits="userSpaceOnUse">
            <stop stop-color="#1D1F43"/>
            <stop offset="0.983794" stop-color="#4656AF"/>
            <stop offset="1" stop-color="#4656AF"/>
        </linearGradient>
        <linearGradient id="paint24_linear" x1="326.083" y1="205.41" x2="350.57" y2="175.379" gradientUnits="userSpaceOnUse">
            <stop stop-color="#1D1F43"/>
            <stop offset="0.983794" stop-color="#4656AF"/>
            <stop offset="1" stop-color="#4656AF"/>
        </linearGradient>
        <linearGradient id="paint25_linear" x1="342.895" y1="88.9367" x2="308.556" y2="99.3222" gradientUnits="userSpaceOnUse">
            <stop stop-color="#F0412A"/>
            <stop offset="1" stop-color="#F35D4D"/>
        </linearGradient>
        <linearGradient id="paint26_linear" x1="326.337" y1="109.786" x2="291.997" y2="120.172" gradientUnits="userSpaceOnUse">
            <stop stop-color="#F0412A"/>
            <stop offset="1" stop-color="#F35D4D"/>
        </linearGradient>
        <linearGradient id="paint27_linear" x1="349.057" y1="160.495" x2="347.872" y2="135.786" gradientUnits="userSpaceOnUse">
            <stop stop-color="#F0412A"/>
            <stop offset="1" stop-color="#F35D4D"/>
        </linearGradient>
        <linearGradient id="paint28_linear" x1="348.858" y1="87.9465" x2="336.592" y2="66.5687" gradientUnits="userSpaceOnUse">
            <stop stop-color="#1D1F43"/>
            <stop offset="0.983794" stop-color="#4656AF"/>
            <stop offset="1" stop-color="#4656AF"/>
        </linearGradient>
        <linearGradient id="paint29_linear" x1="364.168" y1="92.4051" x2="340.267" y2="74.3916" gradientUnits="userSpaceOnUse">
            <stop stop-color="#92CC98"/>
            <stop offset="0.0001" stop-color="#C9D0F5"/>
            <stop offset="1" stop-color="#B5D5A6"/>
        </linearGradient>
        <linearGradient id="paint30_linear" x1="114.776" y1="35.2744" x2="105.618" y2="9.66697" gradientUnits="userSpaceOnUse">
            <stop stop-color="#F0412A"/>
            <stop offset="1" stop-color="#F35D4D"/>
        </linearGradient>
        <linearGradient id="paint31_linear" x1="118.183" y1="6.58827" x2="131.67" y2="30.5918" gradientUnits="userSpaceOnUse">
            <stop stop-color="#C2C3C1"/>
            <stop offset="1" stop-color="white"/>
        </linearGradient>
        <linearGradient id="paint32_linear" x1="100.637" y1="25.3411" x2="114.124" y2="49.3446" gradientUnits="userSpaceOnUse">
            <stop stop-color="#C2C3C1"/>
            <stop offset="0.719726" stop-color="#EDEDEB"/>
            <stop offset="1" stop-color="white"/>
        </linearGradient>
        <linearGradient id="paint33_linear" x1="96.0389" y1="19.031" x2="109.527" y2="43.0347" gradientUnits="userSpaceOnUse">
            <stop stop-color="#C2C3C1"/>
            <stop offset="1" stop-color="white"/>
        </linearGradient>
        <linearGradient id="paint34_linear" x1="96.6934" y1="18.6627" x2="110.181" y2="42.6662" gradientUnits="userSpaceOnUse">
            <stop stop-color="#C2C3C1"/>
            <stop offset="1" stop-color="white"/>
        </linearGradient>
        <linearGradient id="paint35_linear" x1="244.558" y1="99.3334" x2="199.123" y2="82.7701" gradientUnits="userSpaceOnUse">
            <stop stop-color="#F0412A"/>
            <stop offset="1" stop-color="#F35D4D"/>
        </linearGradient>
        <linearGradient id="paint36_linear" x1="225.176" y1="112.948" x2="248.494" y2="81.6291" gradientUnits="userSpaceOnUse">
            <stop stop-color="#C2C3C1"/>
            <stop offset="1" stop-color="white"/>
        </linearGradient>
        <linearGradient id="paint37_linear" x1="223.934" y1="112.023" x2="247.251" y2="80.7038" gradientUnits="userSpaceOnUse">
            <stop stop-color="#C2C3C1"/>
            <stop offset="1" stop-color="white"/>
        </linearGradient>
        <linearGradient id="paint38_linear" x1="224.322" y1="112.312" x2="247.64" y2="80.9926" gradientUnits="userSpaceOnUse">
            <stop stop-color="#C2C3C1"/>
            <stop offset="1" stop-color="white"/>
        </linearGradient>
        <linearGradient id="paint39_linear" x1="204.952" y1="97.8906" x2="228.27" y2="66.5714" gradientUnits="userSpaceOnUse">
            <stop stop-color="#C2C3C1"/>
            <stop offset="1" stop-color="white"/>
        </linearGradient>
    </defs>
</svg>
