<svg width="64" height="64" viewBox="0 0 64 64" fill="#76ec7e"
    xmlns="http://www.w3.org/2000/svg">
    <path d="M55.9611 41.6075C55.7736 40.6739 54.9533 40 54.0002 40H36.0001V44.0001H52.3614L55.5605 60.0001H8.43944L11.6386 44.0001H24V40H10C9.04693 40 8.22653 40.6738 8.03914 41.6075L4.0391 61.6074C3.9219 62.1954 4.07426 62.8047 4.4532 63.2676C4.8341 63.7306 5.40044 64 6.00011 64H58.0001C58.5997 64 59.1661 63.7304 59.547 63.2676C59.926 62.8047 60.0783 62.1954 59.9611 61.6074L55.9611 41.6075Z" fill="#76ec7e"/>
    <path d="M32.0001 33.1497L55.0078 19.7286C55.6425 19.3574 56.0234 18.67 55.998 17.9355C55.9745 17.2012 55.5507 16.539 54.8945 16.2109L32.0001 4.76367V1.99997C32.0001 0.894507 31.1054 7.62939e-06 30 7.62939e-06C28.8945 7.62939e-06 28 0.894507 28 1.99997V52H32.0001V33.1497ZM32.0001 9.23617L49.7989 18.1349L32.0001 28.5172V9.23617Z" fill="#76ec7e"/>
</svg>
