<svg width="50" height="52" viewBox="0 0 60 62" fill="none"
    xmlns="http://www.w3.org/2000/svg" class="col-lg-2">
    <g clip-path="url(#clip0)">
        <mask id="path-1-inside-1" fill="white">
            <path d="M48.252 18.2467C48.242 18.0461 48.1966 17.8496 48.1181 17.6686C48.0397 17.4876 47.9299 17.3255 47.795 17.1918C47.6601 17.058 47.5028 16.9551 47.3321 16.889C47.1613 16.8229 46.9805 16.7949 46.8 16.8067C45.036 16.9133 43.272 17.1333 41.514 17.4133L41.58 12.8267C41.5832 12.3928 41.4316 11.9753 41.1583 11.6654C40.8851 11.3555 40.5124 11.1786 40.122 11.1733H40.08C33.36 11.0889 26.64 11.0889 19.92 11.1733H19.872C19.4826 11.1821 19.1121 11.3615 18.8413 11.6724C18.5704 11.9833 18.4212 12.4006 18.426 12.8333L18.492 17.44C16.728 17.1533 14.964 16.9333 13.2 16.82C12.838 16.7963 12.4824 16.9333 12.2112 17.2008C11.9401 17.4683 11.7756 17.8445 11.754 18.2467V18.4333C11.688 19.6867 11.652 20.9333 11.646 22.18V24.0667C11.669 24.9852 11.9068 25.8812 12.336 26.6667C12.746 27.422 13.3265 28.0452 14.0201 28.4744C14.7137 28.9036 15.4962 29.1238 16.29 29.1133C17.298 29.0267 18.156 28.88 19.044 28.7267C20.184 33.8733 24.504 37.7533 29.082 37.8667C28.4012 40.1082 28.2727 42.5113 28.71 44.8267L26.4 44.74H25.56C25.248 44.74 25.086 44.74 24.618 44.74C23.376 44.8235 22.2099 45.4325 21.3595 46.4418C20.5092 47.4512 20.0391 48.7841 20.046 50.1667L20.088 53.9V53.9467C20.0911 54.1635 20.1328 54.3775 20.2105 54.5764C20.2883 54.7753 20.4006 54.9552 20.5411 55.1057C20.6816 55.2562 20.8475 55.3744 21.0292 55.4535C21.2109 55.5326 21.4049 55.5711 21.6 55.5667C27.426 55.4733 33.228 54.9467 38.502 54.4733C38.718 54.4733 38.676 54.2 38.4 53.8933C38.676 54.2066 38.922 54.2467 39 53.98V53.9067C39.2333 52.452 39.3517 50.9775 39.354 49.5C39.2842 48.6755 39.0274 47.8841 38.6077 47.1998C38.188 46.5154 37.6191 45.9605 36.954 45.5867C36.2834 45.2221 35.5466 45.0329 34.8 45.0333L33.12 44.9533L31.26 44.88C31.7163 42.5506 31.5982 40.1276 30.918 37.8667C33.2582 37.7282 35.4969 36.7601 37.3056 35.1044C39.1144 33.4486 40.3979 31.1924 40.968 28.6667C41.862 28.82 42.714 28.9667 43.734 29.0533C44.5245 29.0591 45.3026 28.8359 45.9918 28.4057C46.681 27.9755 47.2573 27.3531 47.664 26.6C48.0824 25.8178 48.3138 24.9296 48.336 24.02V22.1467C48.336 20.9 48.3 19.6533 48.24 18.4067L48.252 18.2467ZM14.91 25.04C14.7868 24.7227 14.7294 24.3786 14.742 24.0333V22.1667C14.742 21.4133 14.7 20.66 14.676 19.9067C15.956 19.7867 17.232 19.6244 18.504 19.42V20.3L18.6 24.04L18.642 25.9133C18.642 26.1933 18.678 26.48 18.702 26.76L16.404 26.4133C16.0759 26.3296 15.7699 26.1618 15.5105 25.9234C15.2511 25.6849 15.0455 25.3824 14.91 25.04ZM33.168 47.9067L34.854 47.8267C35.4278 47.7405 36.0097 47.8988 36.4827 48.2698C36.9558 48.6408 37.2849 49.197 37.404 49.8267C37.494 50.7467 37.626 51.7667 37.83 52.9C37.9632 53.2695 38.168 53.6018 38.43 53.8733C38.1735 53.5935 37.8475 53.4054 37.494 53.3333H37.428C32.358 52.9067 27.714 52.4533 23.124 52.3V50.1733C23.1344 49.6657 23.3137 49.1803 23.6273 48.8109C23.9408 48.4416 24.3665 48.2144 24.822 48.1733H26.406L29.778 48.0933L33.168 47.9067ZM38.718 27.54C38.4226 29.774 37.4692 31.8364 36.0069 33.4044C34.5446 34.9725 32.6559 35.958 30.636 36.2067C30.4512 36.2436 30.2849 36.3539 30.1679 36.517C30.0509 36.6802 29.9912 36.885 30 37.0933C30.0036 36.8915 29.941 36.695 29.8241 36.5405C29.7071 36.386 29.5436 36.284 29.364 36.2533H29.262C27.2463 35.9757 25.3697 34.9656 23.9243 33.3801C22.4789 31.7945 21.5457 29.7226 21.27 27.4867C21.2058 26.9453 21.1777 26.3993 21.186 25.8533L21.228 24L21.306 20.28L21.39 14.5067C27.126 14.5733 32.864 14.5733 38.604 14.5067L38.688 20.3L38.76 24.04L38.802 25.9067C38.8071 26.4526 38.779 26.9983 38.718 27.54ZM45.096 25.0467C44.9565 25.3948 44.7454 25.7016 44.4796 25.9424C44.2139 26.1833 43.9009 26.3514 43.566 26.4333L41.298 26.7867C41.298 26.4733 41.34 26.1667 41.358 25.86L41.4 24L41.472 20.28V19.4467C42.744 19.6467 44.016 19.8044 45.288 19.92C45.288 20.6733 45.228 21.4267 45.228 22.18V24.0467C45.2491 24.3866 45.2041 24.7277 45.096 25.0467Z" />
        </mask>
        <path d="M48.252 18.2467C48.242 18.0461 48.1966 17.8496 48.1181 17.6686C48.0397 17.4876 47.9299 17.3255 47.795 17.1918C47.6601 17.058 47.5028 16.9551 47.3321 16.889C47.1613 16.8229 46.9805 16.7949 46.8 16.8067C45.036 16.9133 43.272 17.1333 41.514 17.4133L41.58 12.8267C41.5832 12.3928 41.4316 11.9753 41.1583 11.6654C40.8851 11.3555 40.5124 11.1786 40.122 11.1733H40.08C33.36 11.0889 26.64 11.0889 19.92 11.1733H19.872C19.4826 11.1821 19.1121 11.3615 18.8413 11.6724C18.5704 11.9833 18.4212 12.4006 18.426 12.8333L18.492 17.44C16.728 17.1533 14.964 16.9333 13.2 16.82C12.838 16.7963 12.4824 16.9333 12.2112 17.2008C11.9401 17.4683 11.7756 17.8445 11.754 18.2467V18.4333C11.688 19.6867 11.652 20.9333 11.646 22.18V24.0667C11.669 24.9852 11.9068 25.8812 12.336 26.6667C12.746 27.422 13.3265 28.0452 14.0201 28.4744C14.7137 28.9036 15.4962 29.1238 16.29 29.1133C17.298 29.0267 18.156 28.88 19.044 28.7267C20.184 33.8733 24.504 37.7533 29.082 37.8667C28.4012 40.1082 28.2727 42.5113 28.71 44.8267L26.4 44.74H25.56C25.248 44.74 25.086 44.74 24.618 44.74C23.376 44.8235 22.2099 45.4325 21.3595 46.4418C20.5092 47.4512 20.0391 48.7841 20.046 50.1667L20.088 53.9V53.9467C20.0911 54.1635 20.1328 54.3775 20.2105 54.5764C20.2883 54.7753 20.4006 54.9552 20.5411 55.1057C20.6816 55.2562 20.8475 55.3744 21.0292 55.4535C21.2109 55.5326 21.4049 55.5711 21.6 55.5667C27.426 55.4733 33.228 54.9467 38.502 54.4733C38.718 54.4733 38.676 54.2 38.4 53.8933C38.676 54.2066 38.922 54.2467 39 53.98V53.9067C39.2333 52.452 39.3517 50.9775 39.354 49.5C39.2842 48.6755 39.0274 47.8841 38.6077 47.1998C38.188 46.5154 37.6191 45.9605 36.954 45.5867C36.2834 45.2221 35.5466 45.0329 34.8 45.0333L33.12 44.9533L31.26 44.88C31.7163 42.5506 31.5982 40.1276 30.918 37.8667C33.2582 37.7282 35.4969 36.7601 37.3056 35.1044C39.1144 33.4486 40.3979 31.1924 40.968 28.6667C41.862 28.82 42.714 28.9667 43.734 29.0533C44.5245 29.0591 45.3026 28.8359 45.9918 28.4057C46.681 27.9755 47.2573 27.3531 47.664 26.6C48.0824 25.8178 48.3138 24.9296 48.336 24.02V22.1467C48.336 20.9 48.3 19.6533 48.24 18.4067L48.252 18.2467ZM14.91 25.04C14.7868 24.7227 14.7294 24.3786 14.742 24.0333V22.1667C14.742 21.4133 14.7 20.66 14.676 19.9067C15.956 19.7867 17.232 19.6244 18.504 19.42V20.3L18.6 24.04L18.642 25.9133C18.642 26.1933 18.678 26.48 18.702 26.76L16.404 26.4133C16.0759 26.3296 15.7699 26.1618 15.5105 25.9234C15.2511 25.6849 15.0455 25.3824 14.91 25.04ZM33.168 47.9067L34.854 47.8267C35.4278 47.7405 36.0097 47.8988 36.4827 48.2698C36.9558 48.6408 37.2849 49.197 37.404 49.8267C37.494 50.7467 37.626 51.7667 37.83 52.9C37.9632 53.2695 38.168 53.6018 38.43 53.8733C38.1735 53.5935 37.8475 53.4054 37.494 53.3333H37.428C32.358 52.9067 27.714 52.4533 23.124 52.3V50.1733C23.1344 49.6657 23.3137 49.1803 23.6273 48.8109C23.9408 48.4416 24.3665 48.2144 24.822 48.1733H26.406L29.778 48.0933L33.168 47.9067ZM38.718 27.54C38.4226 29.774 37.4692 31.8364 36.0069 33.4044C34.5446 34.9725 32.6559 35.958 30.636 36.2067C30.4512 36.2436 30.2849 36.3539 30.1679 36.517C30.0509 36.6802 29.9912 36.885 30 37.0933C30.0036 36.8915 29.941 36.695 29.8241 36.5405C29.7071 36.386 29.5436 36.284 29.364 36.2533H29.262C27.2463 35.9757 25.3697 34.9656 23.9243 33.3801C22.4789 31.7945 21.5457 29.7226 21.27 27.4867C21.2058 26.9453 21.1777 26.3993 21.186 25.8533L21.228 24L21.306 20.28L21.39 14.5067C27.126 14.5733 32.864 14.5733 38.604 14.5067L38.688 20.3L38.76 24.04L38.802 25.9067C38.8071 26.4526 38.779 26.9983 38.718 27.54ZM45.096 25.0467C44.9565 25.3948 44.7454 25.7016 44.4796 25.9424C44.2139 26.1833 43.9009 26.3514 43.566 26.4333L41.298 26.7867C41.298 26.4733 41.34 26.1667 41.358 25.86L41.4 24L41.472 20.28V19.4467C42.744 19.6467 44.016 19.8044 45.288 19.92C45.288 20.6733 45.228 21.4267 45.228 22.18V24.0467C45.2491 24.3866 45.2041 24.7277 45.096 25.0467Z" fill="black" stroke="#F2F2F2" stroke-width="2" mask="url(#path-1-inside-1)" />
    </g>
    <defs>
        <clipPath id="clip0">
            <rect width="60" height="62" fill="white" />
        </clipPath>
    </defs>
</svg>