<svg width="64" height="64" viewBox="0 0 64 64" fill="#76ec7e"
    xmlns="http://www.w3.org/2000/svg">
    <g clip-path="url(#clip0)">
        <path d="M47.3219 0H9.74875C8.016 0 6.6065 1.40962 6.6065 3.14237V4.33862H5.06325C3.33063 4.33862 1.92101 5.74825 1.92101 7.481V47.6455C1.92101 48.1634 2.34076 48.583 2.8585 48.583C3.37625 48.583 3.796 48.1634 3.796 47.6455V7.481C3.796 6.78212 4.3645 6.21362 5.06325 6.21362H42.6364C43.3351 6.21362 43.9036 6.78212 43.9036 7.481V60.8577C43.9036 61.5566 43.3351 62.1251 42.6364 62.1251H5.06325C4.3645 62.1251 3.796 61.5566 3.796 60.8577V52.0206C3.796 51.5028 3.37625 51.0831 2.8585 51.0831C2.34076 51.0831 1.92101 51.5028 1.92101 52.0206V60.8577C1.92101 62.5904 3.33063 64.0001 5.06325 64.0001H42.6364C44.369 64.0001 45.7786 62.5905 45.7786 60.8577V59.6615H47.3217C49.0544 59.6615 50.464 58.2519 50.464 56.5191V15.0611C50.464 14.5432 50.0442 14.1236 49.5265 14.1236C49.0087 14.1236 48.589 14.5432 48.589 15.0611V56.519C48.589 57.2179 48.0205 57.7864 47.3217 57.7864H46.1254V7.481C46.1254 5.74837 44.7157 4.33862 42.9831 4.33862C42.4669 4.33862 8.71913 4.33862 8.48138 4.33862V3.14237C8.4815 2.4435 9.04988 1.875 9.74875 1.875H47.3219C48.0206 1.875 48.5891 2.4435 48.5891 3.14237V10.6862C48.5891 11.2041 49.0089 11.6237 49.5266 11.6237C50.0444 11.6237 50.4641 11.2041 50.4641 10.6862V3.14237C50.4641 1.40962 49.0545 0 47.3219 0V0Z" fill="#76ec7e"/>
        <path d="M59.9646 18.5995H54.963C53.7971 18.5995 52.8486 19.548 52.8486 20.7139V47.3267C52.8486 47.3449 52.8504 47.3625 52.8514 47.3804C52.8519 47.3901 52.852 47.3999 52.8529 47.4096C52.8595 47.4846 52.8751 47.5569 52.8982 47.6257C52.9007 47.633 52.9036 47.6402 52.9062 47.6475C52.9167 47.6762 52.9286 47.7044 52.9417 47.7319C52.9439 47.7362 52.9452 47.741 52.9475 47.7454L56.0237 53.9086C56.3235 54.5092 56.8619 54.8679 57.464 54.8679C58.0661 54.8679 58.6045 54.5092 58.9041 53.9087L61.9804 47.7454C61.9831 47.74 61.9848 47.7342 61.9874 47.7289C61.9995 47.7035 62.0104 47.6775 62.0203 47.6509C62.0236 47.6417 62.0271 47.6329 62.0301 47.6237C62.0409 47.5916 62.0503 47.5587 62.0575 47.5251C62.058 47.5227 62.0589 47.5205 62.0594 47.5181C62.0666 47.4834 62.0715 47.4477 62.0748 47.4116C62.0759 47.3994 62.076 47.3871 62.0766 47.3749C62.0775 47.3589 62.079 47.343 62.079 47.3267C62.079 46.3542 62.079 22.0421 62.079 20.7139C62.079 19.548 61.1305 18.5995 59.9646 18.5995V18.5995ZM57.4639 52.5957L55.302 48.2644H59.6259L57.4639 52.5957ZM60.204 46.3892H54.7237V26.3415H60.204V46.3892ZM60.204 24.4665H54.7237V20.7139C54.7237 20.5819 54.8311 20.4745 54.9631 20.4745H59.9648C60.0968 20.4745 60.2041 20.5819 60.2041 20.7139V24.4665H60.204Z" fill="#76ec7e"/>
        <path d="M7.27726 57.0322C7.27726 58.1006 8.14638 58.9697 9.21476 58.9697H14.3814C15.4498 58.9697 16.3189 58.1006 16.3189 57.0322V52.0952L18.4578 49.8199C18.8124 49.4426 18.794 48.8492 18.4168 48.4946C18.0395 48.14 17.4463 48.1584 17.0915 48.5356L15.4681 50.2626C15.158 50.0516 14.7839 49.9281 14.3814 49.9281H9.21476C8.14638 49.9281 7.27726 50.7972 7.27726 51.8656V57.0322ZM14.4439 54.0899V57.0322C14.4439 57.0666 14.4159 57.0947 14.3814 57.0947H11.603C11.6399 57.0659 11.6755 57.0349 11.7081 57.0003L14.4439 54.0899ZM9.15226 51.8656C9.15226 51.8312 9.18026 51.8031 9.21476 51.8031H14.0201L11.1564 54.8496L9.47626 52.2892C9.39113 52.1595 9.27888 52.0584 9.15238 51.9873V51.8656H9.15226ZM9.15226 55.2134C10.3394 57.0224 10.2821 56.9659 10.4461 57.0947H9.21476C9.18026 57.0947 9.15226 57.0666 9.15226 57.0322V55.2134Z" fill="#76ec7e"/>
        <path d="M39.4531 53.5114H19.5365C19.0188 53.5114 18.599 53.931 18.599 54.4489C18.599 54.9668 19.0188 55.3864 19.5365 55.3864H39.4531C39.9709 55.3864 40.3906 54.9668 40.3906 54.4489C40.3906 53.931 39.9709 53.5114 39.4531 53.5114Z" fill="#76ec7e"/>
        <path d="M9.46476 30.3639H26.0846C27.2908 30.3639 28.2721 29.3825 28.2721 28.1764V11.5564C28.2721 10.3503 27.2908 9.36888 26.0846 9.36888H9.46476C8.25864 9.36888 7.27726 10.3503 7.27726 11.5564V28.1764C7.27726 29.3826 8.25864 30.3639 9.46476 30.3639V30.3639ZM9.15226 11.5564C9.15226 11.384 9.29251 11.2439 9.46476 11.2439H26.0846C26.2569 11.2439 26.3971 11.384 26.3971 11.5564V28.1764C26.3971 28.3488 26.2569 28.4889 26.0846 28.4889H9.46476C9.29251 28.4889 9.15226 28.3488 9.15226 28.1764V11.5564Z" fill="#76ec7e"/>
        <path d="M14.125 26.9862C14.6425 26.9862 15.0638 26.5662 15.0638 26.05V24.025C15.0663 22.5364 16.2761 21.3216 17.7633 21.3127C17.7671 21.3127 17.7709 21.313 17.7748 21.313C17.7788 21.313 17.7826 21.3127 17.7865 21.3127C19.2738 21.3215 20.4838 22.5362 20.4863 24.025V25.1124H18.5C17.9838 25.1124 17.5625 25.5324 17.5625 26.0499C17.5625 26.5661 17.9838 26.9874 18.5 26.9874C18.5013 26.9874 18.5025 26.9874 18.5025 26.9861H21.4238C21.67 26.9861 21.9125 26.8861 22.0863 26.7125C22.2613 26.5375 22.3613 26.2962 22.3613 26.0499V24.025C22.3613 22.7986 21.8838 21.6474 21.0175 20.7812C20.8541 20.6179 20.6806 20.4684 20.4984 20.3334C21.4505 19.547 22.0584 18.358 22.0584 17.0296C22.0584 14.6676 20.1368 12.7459 17.7748 12.7459C15.4128 12.7459 13.4911 14.6675 13.4911 17.0296C13.4911 18.3579 14.0989 19.5469 15.0509 20.3332C14.8685 20.4684 14.6948 20.6179 14.5313 20.7814C13.665 21.6476 13.1888 22.7989 13.1888 24.0251V26.05C13.1888 26.2964 13.2888 26.5375 13.4625 26.7126C13.6375 26.8862 13.8788 26.9862 14.125 26.9862V26.9862ZM17.7748 14.6209C19.1029 14.6209 20.1834 15.7015 20.1834 17.0296C20.1834 18.355 19.1073 19.4332 17.7829 19.4377C17.7803 19.4377 17.7776 19.4376 17.775 19.4376C17.7723 19.4376 17.7695 19.4377 17.7668 19.4379C16.4424 19.4335 15.3661 18.3551 15.3661 17.0297C15.3661 15.7014 16.4466 14.6209 17.7748 14.6209V14.6209Z" fill="#76ec7e"/>
        <path d="M31.1671 15.8209H39.4531C39.9709 15.8209 40.3906 15.4013 40.3906 14.8834C40.3906 14.3655 39.9709 13.9459 39.4531 13.9459H31.1671C30.6494 13.9459 30.2296 14.3655 30.2296 14.8834C30.2296 15.4013 30.6494 15.8209 31.1671 15.8209Z" fill="#76ec7e"/>
        <path d="M31.1671 21.136H39.4531C39.9709 21.136 40.3906 20.7164 40.3906 20.1985C40.3906 19.6806 39.9709 19.261 39.4531 19.261H31.1671C30.6494 19.261 30.2296 19.6806 30.2296 20.1985C30.2296 20.7164 30.6494 21.136 31.1671 21.136Z" fill="#76ec7e"/>
        <path d="M31.1671 26.8051H39.4531C39.9709 26.8051 40.3906 26.3855 40.3906 25.8676C40.3906 25.3497 39.9709 24.9301 39.4531 24.9301H31.1671C30.6494 24.9301 30.2296 25.3497 30.2296 25.8676C30.2296 26.3855 30.6494 26.8051 31.1671 26.8051Z" fill="#76ec7e"/>
        <path d="M8.21476 35.8581H39.4531C39.9709 35.8581 40.3906 35.4385 40.3906 34.9206C40.3906 34.4027 39.9709 33.9831 39.4531 33.9831H8.21476C7.69701 33.9831 7.27726 34.4027 7.27726 34.9206C7.27726 35.4385 7.69701 35.8581 8.21476 35.8581V35.8581Z" fill="#76ec7e"/>
        <path d="M8.21476 41.1731H39.4531C39.9709 41.1731 40.3906 40.7535 40.3906 40.2356C40.3906 39.7178 39.9709 39.2981 39.4531 39.2981H8.21476C7.69701 39.2981 7.27726 39.7178 7.27726 40.2356C7.27726 40.7535 7.69701 41.1731 8.21476 41.1731V41.1731Z" fill="#76ec7e"/>
        <path d="M8.21476 46.4881H39.4531C39.9709 46.4881 40.3906 46.0685 40.3906 45.5506C40.3906 45.0327 39.9709 44.6131 39.4531 44.6131H8.21476C7.69701 44.6131 7.27726 45.0327 7.27726 45.5506C7.27726 46.0685 7.69701 46.4881 8.21476 46.4881V46.4881Z" fill="#76ec7e"/>
    </g>
    <defs>
        <clipPath id="clip0">
            <rect width="64" height="64" fill="#76ec7e"/>
        </clipPath>
    </defs>
</svg>
