<svg class="about-svg" width="427" height="332" viewBox="0 0 427 332" fill="none" xmlns="http://www.w3.org/2000/svg">
<path d="M124.756 0L56.7505 36.8574C57.9134 38.8606 58.6626 41.077 58.9537 43.3752C59.2448 45.6734 59.0719 48.0067 58.4453 50.2369C57.8187 52.467 56.751 54.5486 55.3056 56.3583C53.8602 58.1681 52.0665 59.6691 50.0307 60.7724C47.9949 61.8758 45.7584 62.559 43.4539 62.7817C41.1493 63.0043 38.8236 62.7619 36.6144 62.0687C34.4052 61.3755 32.3576 60.2456 30.5928 58.746C28.8281 57.2465 27.3821 55.4078 26.3406 53.3388L3.1525 65.9061L63.2167 176.861L184.821 110.955L124.756 0Z" fill="#F1FFEE"/>
<path d="M40.7569 59.5976C48.5105 59.5976 54.7961 53.3084 54.7961 45.5502C54.7961 37.792 48.5105 31.5027 40.7569 31.5027C33.0033 31.5027 26.7177 37.792 26.7177 45.5502C26.7177 53.3084 33.0033 59.5976 40.7569 59.5976Z" fill="#3BAD49"/>
<path d="M295.521 297.034L369.049 273.036C368.266 270.856 367.928 268.541 368.056 266.228C368.183 263.915 368.773 261.651 369.791 259.57C370.809 257.489 372.234 255.634 373.981 254.115C375.729 252.595 377.763 251.442 379.964 250.724C382.166 250.005 384.488 249.736 386.795 249.932C389.102 250.129 391.346 250.786 393.395 251.866C395.443 252.946 397.254 254.427 398.72 256.22C400.185 258.013 401.277 260.082 401.929 262.305L427 254.122L387.892 134.157L256.413 177.069L295.521 297.034Z" fill="#F1FFEE"/>
<path d="M386.346 281.416C394.1 281.416 400.385 275.126 400.385 267.368C400.385 259.61 394.1 253.321 386.346 253.321C378.593 253.321 372.307 259.61 372.307 267.368C372.307 275.126 378.593 281.416 386.346 281.416Z" fill="#3BAD49"/>
<path d="M389.243 65.8147H49.7594V220.138H389.243V65.8147Z" fill="#3F3D56"/>
<path d="M383.643 71.4186H55.36V211.516H383.643V71.4186Z" fill="#F1FFEE"/>
<path d="M350.254 204.835H318.374V215.611H350.254V204.835Z" fill="#3F3D56"/>
<path d="M316.651 213.025H293.386V216.042H316.651V213.025Z" fill="#3BAD49"/>
<path d="M82.0706 124.44H207.438L226.875 133.915L257.844 149.011L278.092 111.077H335.391" stroke="#3F3D56" stroke-width="2" stroke-miterlimit="10"/>
<path d="M131.367 124.44L140.662 146.425H163.495" stroke="#3F3D56" stroke-width="2" stroke-miterlimit="10"/>
<path d="M166.212 124.44L197.96 107.197H220.363" stroke="#3F3D56" stroke-width="2" stroke-miterlimit="10"/>
<path d="M131.184 128.32C133.325 128.32 135.061 126.583 135.061 124.44C135.061 122.297 133.325 120.56 131.184 120.56C129.042 120.56 127.306 122.297 127.306 124.44C127.306 126.583 129.042 128.32 131.184 128.32Z" fill="#3BAD49"/>
<path d="M167.372 128.32C169.514 128.32 171.25 126.583 171.25 124.44C171.25 122.297 169.514 120.56 167.372 120.56C165.231 120.56 163.495 122.297 163.495 124.44C163.495 126.583 165.231 128.32 167.372 128.32Z" fill="#3BAD49"/>
<path d="M226.825 133.924L229.41 172.289H251.813" stroke="#3F3D56" stroke-width="2" stroke-miterlimit="10"/>
<path d="M269.972 126.291L245.35 107.197H268.614" stroke="#3F3D56" stroke-width="2" stroke-miterlimit="10"/>
<path d="M310.641 111.077L334.529 130.044H356.932" stroke="#3F3D56" stroke-width="2" stroke-miterlimit="10"/>
<path d="M226.825 137.803C228.967 137.803 230.703 136.066 230.703 133.924C230.703 131.781 228.967 130.044 226.825 130.044C224.684 130.044 222.948 131.781 222.948 133.924C222.948 136.066 224.684 137.803 226.825 137.803Z" fill="#3BAD49"/>
<path d="M310.404 114.957C312.545 114.957 314.281 113.22 314.281 111.077C314.281 108.934 312.545 107.197 310.404 107.197C308.262 107.197 306.526 108.934 306.526 111.077C306.526 113.22 308.262 114.957 310.404 114.957Z" fill="#3BAD49"/>
<path d="M269.907 130.044C272.048 130.044 273.784 128.307 273.784 126.164C273.784 124.022 272.048 122.285 269.907 122.285C267.766 122.285 266.03 124.022 266.03 126.164C266.03 128.307 267.766 130.044 269.907 130.044Z" fill="#3BAD49"/>
<path d="M141.093 149.873H163.495" stroke="#3F3D56" stroke-width="2" stroke-miterlimit="10"/>
<path d="M348.765 38.9192C352.275 38.9192 355.121 36.0714 355.121 32.5585C355.121 29.0456 352.275 26.1979 348.765 26.1979C345.254 26.1979 342.408 29.0456 342.408 32.5585C342.408 36.0714 345.254 38.9192 348.765 38.9192Z" stroke="#3F3D56" stroke-width="2" stroke-miterlimit="10"/>
<path opacity="0.1" d="M71.0314 113.345L79.9537 120.697L81.0036 119.121L71.0314 113.345Z" fill="black"/>
<path opacity="0.1" d="M88.8758 115.446L82.5782 119.121L83.1029 120.697L88.8758 115.446Z" fill="black"/>
</svg>
